<svg xmlns="http://www.w3.org/2000/svg" xmlns:xlink="http://www.w3.org/1999/xlink" width="500" zoomAndPan="magnify" viewBox="0 0 375 374.999991" height="500" preserveAspectRatio="xMidYMid meet" version="1.0"><defs><g/></defs><path stroke-linecap="butt" transform="matrix(1.227939, 0, 0, 1.227939, 11.492248, 148.060653)" fill="none" stroke-linejoin="miter" d="M 18.402869 34.370584 C 18.402869 34.873205 18.383783 35.639861 18.345609 36.670551 C 18.313797 37.701242 18.297892 38.773288 18.297892 39.886688 C 18.297892 40.993726 18.34879 41.935345 18.447405 42.714725 L 18.447405 45.530038 C 18.447405 45.844971 18.291529 46.000847 17.979777 46.000847 C 17.979777 46.000847 18.084755 46.000847 18.297892 46.000847 C 18.520572 46.000847 18.714621 46.000847 18.883222 46.000847 C 19.058185 46.000847 19.121808 46.000847 19.077272 46.000847 C 19.032736 46.000847 18.749614 46.000847 18.231088 46.000847 C 17.718923 46.000847 16.866377 46.000847 15.676629 46.000847 C 13.707501 46.000847 12.136016 45.886326 10.962173 45.657283 C 9.791512 45.418698 8.881705 45.129214 8.223208 44.78565 C 7.567893 44.435724 7.017555 44.136697 6.575376 43.89493 C 5.92006 43.481381 5.277469 43.010572 4.653965 42.485683 C 4.027279 41.951251 3.52784 41.385007 3.152465 40.790133 C 2.344454 39.479502 1.822746 38.299297 1.584161 37.252701 C 1.348756 36.209286 1.231054 35.184957 1.231054 34.186078 L 1.231054 28.507736 C 1.231054 28.507736 1.231054 28.596808 1.231054 28.771771 C 1.231054 28.940371 1.231054 29.10261 1.231054 29.264848 C 1.231054 29.417543 1.231054 29.455717 1.231054 29.379369 C 1.231054 29.303022 1.231054 28.997632 1.231054 28.4632 C 1.231054 27.432509 1.307401 26.430449 1.460096 25.463381 C 1.619153 24.493132 1.841833 23.59923 2.121774 22.784858 C 2.376266 22.005477 2.764365 21.302444 3.289254 20.67894 C 3.823686 20.052255 4.38993 19.441475 4.984804 18.846601 C 5.955053 17.946337 7.252959 17.332377 8.878524 17.001538 C 10.504089 16.67388 12.190095 16.511641 13.936543 16.511641 C 15.288529 16.511641 16.29059 16.511641 16.949087 16.511641 C 17.604402 16.511641 18.017951 16.511641 18.18337 16.511641 C 18.358333 16.511641 18.396507 16.511641 18.297892 16.511641 C 18.205638 16.511641 18.081574 16.511641 17.922517 16.511641 C 17.769822 16.511641 17.693474 16.511641 17.693474 16.511641 C 17.782546 16.511641 17.93206 16.597532 18.138834 16.772495 C 18.345609 16.941096 18.447405 17.087429 18.447405 17.208312 L 18.447405 19.600532 C 18.415594 19.724597 18.390145 19.848662 18.367877 19.979089 C 18.351971 20.099972 18.345609 20.224037 18.345609 20.34492 C 18.313797 20.628042 18.297892 21.168836 18.297892 21.970485 C 18.297892 22.765771 18.313797 23.615136 18.345609 24.524943 C 18.383783 25.431569 18.409232 26.214131 18.425137 26.869447 C 18.441043 27.527943 18.447405 27.855601 18.447405 27.855601 C 18.447405 28.167353 18.307435 28.323229 18.024313 28.323229 C 17.582134 28.294599 16.98726 28.294599 16.239691 28.323229 C 15.488941 28.355041 14.760459 28.393215 14.051064 28.437751 C 13.348031 28.485468 12.861316 28.507736 12.587738 28.507736 C 11.830626 28.539547 11.267563 28.733597 10.892188 29.093066 C 10.516813 29.449354 10.265503 29.843816 10.135076 30.27009 C 10.014192 30.690001 9.953751 31.027202 9.953751 31.278512 C 9.953751 31.622076 10.00783 31.972002 10.112808 32.331471 C 10.227329 32.69094 10.39593 32.980424 10.61861 33.199923 C 10.990804 33.543487 11.42662 33.782073 11.922879 33.9125 C 12.4255 34.033383 12.991743 34.125636 13.615248 34.186078 C 14.241933 34.24652 14.884524 34.262425 15.53984 34.230614 C 16.195155 34.201984 16.748674 34.170172 17.200397 34.141542 C 17.648938 34.10973 17.909792 34.093825 17.979777 34.093825 C 18.192914 34.093825 18.332884 34.186078 18.402869 34.370584 Z M 38.555417 24.009598 C 38.555417 24.413603 38.555417 25.046651 38.555417 25.908741 C 38.555417 26.770831 38.555417 27.74108 38.555417 28.816307 C 38.555417 29.891533 38.555417 30.979485 38.555417 32.080161 C 38.555417 33.171293 38.555417 34.147904 38.555417 35.009994 C 38.555417 35.865722 38.555417 36.495589 38.555417 36.899594 C 38.555417 37.898473 38.450439 38.760563 38.246846 39.485864 C 38.046434 40.204803 37.791942 40.92056 37.48019 41.639498 C 37.225699 42.263003 36.901222 42.822884 36.50676 43.309599 C 36.11548 43.789952 35.705112 44.187595 35.269295 44.499347 C 34.734863 44.903352 34.184525 45.256459 33.621463 45.552306 C 33.064762 45.851333 32.329918 46.000847 31.423292 46.000847 C 31.299227 46.000847 31.025649 46.000847 30.599376 46.000847 C 30.179465 46.000847 29.718199 46.000847 29.212397 46.000847 C 28.716138 46.000847 28.283503 46.000847 27.908128 46.000847 C 27.535934 46.000847 27.332341 46.000847 27.300529 46.000847 C 26.454345 45.940405 25.665421 45.67637 24.930577 45.208742 C 24.198914 44.737933 23.597678 44.203501 23.123687 43.608627 C 22.872377 43.293693 22.605161 42.841971 22.322039 42.243916 C 22.04846 41.649042 21.813056 41.035081 21.622187 40.402033 C 21.440862 39.759442 21.348609 39.190018 21.348609 38.684216 C 21.348609 38.401094 21.348609 37.783952 21.348609 36.829609 C 21.348609 35.875265 21.348609 34.768227 21.348609 33.511675 C 21.348609 32.242399 21.348609 30.954036 21.348609 29.640223 C 21.348609 28.320048 21.348609 27.136663 21.348609 26.093247 C 21.348609 25.046651 21.348609 24.305444 21.348609 23.872809 C 21.348609 22.743503 21.485398 21.757348 21.762158 20.917526 C 22.042098 20.071342 22.372937 19.40012 22.745131 18.903862 C 23.400447 18.054496 24.027132 17.475528 24.622006 17.163776 C 25.21688 16.848843 25.939 16.632525 26.785184 16.511641 C 26.785184 16.511641 27.004683 16.511641 27.4405 16.511641 C 27.873135 16.511641 28.410749 16.511641 29.05334 16.511641 C 29.69275 16.511641 30.328978 16.511641 30.952483 16.511641 C 31.579168 16.511641 32.094513 16.511641 32.498519 16.511641 C 33.316073 16.511641 34.06046 16.651612 34.731682 16.934734 C 35.402903 17.208312 36.020045 17.688665 36.586289 18.375792 C 37.181163 19.072462 37.658334 19.934552 38.017804 20.965243 C 38.374092 21.992753 38.555417 23.007538 38.555417 24.009598 Z M 28.238967 33.992028 C 28.238967 35.213587 28.404386 36.021598 28.732044 36.419241 C 29.059702 36.807341 29.473251 37.00139 29.969509 37.00139 C 30.596195 37.00139 30.984294 36.718269 31.136989 36.155206 C 31.296046 35.588962 31.375575 35.13724 31.375575 34.793676 C 31.375575 33.600747 31.401024 32.350558 31.44556 31.036745 C 31.490096 29.726114 31.49964 28.634982 31.467828 27.763348 C 31.439198 27.038047 31.33422 26.427268 31.159257 25.931009 C 30.990656 25.428388 30.596195 25.177078 29.969509 25.177078 C 29.441439 25.177078 29.05334 25.326592 28.802029 25.622438 C 28.550719 25.921466 28.391662 26.26821 28.33122 26.665853 C 28.270778 27.053953 28.238967 27.372067 28.238967 27.613834 C 28.238967 27.928768 28.238967 28.437751 28.238967 29.150327 C 28.238967 29.850179 28.238967 30.642283 28.238967 31.517098 C 28.238967 32.388732 28.238967 33.212648 28.238967 33.992028 Z M 58.243518 37.367222 C 58.243518 38.369282 57.985845 39.495407 57.467319 40.745597 C 56.945611 41.995787 56.128057 43.045564 55.005113 43.89493 C 53.942611 44.70294 52.870565 45.234191 51.788976 45.485502 C 50.710569 45.736812 50.001173 45.864058 49.65761 45.864058 C 49.377669 45.892688 48.960939 45.914956 48.410601 45.930862 C 47.869807 45.946768 47.316288 45.95313 46.750044 45.95313 C 46.186982 45.95313 45.782976 45.95313 45.538028 45.95313 C 45.506217 45.95313 45.29308 45.962673 44.895437 45.978579 C 44.507338 45.991304 44.061977 46.000847 43.556176 46.000847 C 43.059917 46.000847 42.627281 46.000847 42.251906 46.000847 C 41.876531 46.000847 41.692025 46.000847 41.692025 46.000847 C 41.408903 46.000847 41.281658 45.844971 41.313469 45.530038 C 41.34528 45.278727 41.367548 44.70294 41.383454 43.802676 C 41.396179 42.892869 41.412084 41.855816 41.42799 40.688336 C 41.443896 39.514494 41.443896 38.388369 41.42799 37.309961 C 41.412084 36.228372 41.405722 35.372645 41.405722 34.745959 C 41.34528 33.371705 41.291201 32.000632 41.243484 30.626378 C 41.198948 29.245761 41.160774 27.868326 41.128963 26.494072 L 41.128963 18.433052 C 41.128963 18.181742 41.138506 17.920888 41.154412 17.656853 C 41.167136 17.389637 41.17668 17.128783 41.17668 16.877473 C 41.20531 16.632525 41.329375 16.511641 41.542511 16.511641 L 47.551692 16.511641 C 47.551692 16.511641 47.456258 16.511641 47.26539 16.511641 C 47.084064 16.511641 46.934551 16.511641 46.820029 16.511641 C 46.71187 16.511641 46.76595 16.511641 46.979087 16.511641 C 47.201767 16.511641 47.720293 16.511641 48.537847 16.511641 C 49.62898 16.511641 50.526062 16.549815 51.225914 16.626163 C 51.928947 16.70251 52.600168 16.902922 53.242759 17.23058 C 53.882169 17.561419 54.642463 18.099032 55.520458 18.846601 C 56.458896 19.660974 57.107849 20.586687 57.467319 21.617378 C 57.823607 22.648068 58.043106 23.646948 58.119453 24.614015 C 58.202163 25.584264 58.243518 26.398637 58.243518 27.053953 C 58.243518 27.276633 58.243518 27.728355 58.243518 28.415483 C 58.243518 29.10261 58.243518 29.907439 58.243518 30.833152 C 58.243518 31.755684 58.243518 32.678216 58.243518 33.600747 C 58.243518 34.516917 58.243518 35.321746 58.243518 36.018417 C 58.243518 36.705544 58.243518 37.154085 58.243518 37.367222 Z M 50.780554 34.049289 C 50.850539 33.696182 50.898256 33.193561 50.930067 32.538245 C 50.958698 31.879748 50.968241 31.224433 50.952335 30.569117 C 50.93643 29.91062 50.895075 29.398456 50.82509 29.023081 C 50.704206 27.931949 50.487888 27.222554 50.172955 26.894896 C 49.861203 26.564057 49.578081 26.401818 49.326771 26.401818 C 49.053192 26.401818 48.843237 26.513158 48.696904 26.732657 C 48.560115 26.945794 48.49013 27.432509 48.49013 28.18644 L 48.49013 33.992028 C 48.49013 34.555091 48.528304 35.051349 48.604651 35.480804 C 48.680999 35.900715 48.922766 36.11067 49.326771 36.11067 C 49.76895 36.11067 50.090245 35.961156 50.287476 35.662129 C 50.494251 35.366282 50.65967 34.825488 50.780554 34.049289 Z M 77.737569 38.216587 C 77.737569 38.620593 77.737569 39.065953 77.737569 39.555849 C 77.737569 40.036202 77.737569 40.446569 77.737569 40.790133 C 77.737569 41.044625 77.743931 41.42 77.759837 41.925801 C 77.775742 42.42206 77.79801 42.959673 77.829822 43.538641 C 77.867995 44.11761 77.893445 44.610687 77.90935 45.014692 C 77.925256 45.418698 77.931618 45.622291 77.931618 45.622291 C 77.931618 45.873601 77.807554 46.000847 77.553062 46.000847 L 61.332409 46.000847 C 60.89023 46.000847 60.683455 45.781348 60.715267 45.348712 C 60.813882 42.997847 60.871143 40.6438 60.887048 38.283391 C 60.902954 35.926164 60.925222 33.559393 60.953852 31.186259 C 60.985664 28.873567 61.068374 26.54497 61.208344 24.203648 C 61.351495 21.852782 61.25288 19.521004 60.909316 17.208312 C 60.877505 17.017443 60.925222 16.855205 61.046106 16.715235 C 61.17017 16.578446 61.326046 16.511641 61.516915 16.511641 L 77.359012 16.511641 C 77.549881 16.511641 77.677127 16.600714 77.737569 16.78522 C 77.737569 16.817031 77.731206 16.957002 77.715301 17.208312 C 77.699395 17.459622 77.677127 17.714114 77.645315 17.965424 C 77.645315 18.118119 77.62941 18.474407 77.600779 19.040651 C 77.568968 19.603714 77.5467 20.192225 77.530794 20.803005 C 77.514888 21.407422 77.508526 21.865507 77.508526 22.177259 C 77.508526 22.489011 77.524432 22.877111 77.553062 23.332014 C 77.584874 23.783737 77.623047 24.187742 77.667583 24.547211 C 77.715301 24.906681 77.737569 25.084825 77.737569 25.084825 C 77.737569 25.336135 77.597598 25.463381 77.314476 25.463381 C 77.314476 25.463381 77.088615 25.453837 76.636893 25.441113 C 76.188351 25.425207 75.609383 25.415664 74.896807 25.415664 C 74.196955 25.415664 73.471654 25.425207 72.724086 25.441113 C 71.976517 25.453837 71.305295 25.507917 70.70724 25.60017 C 70.236431 25.660612 69.746535 25.803763 69.243914 26.023262 C 68.747655 26.245942 68.48362 26.637223 68.451809 27.203467 C 68.423179 27.54703 68.524975 27.836514 68.763561 28.071919 C 68.998966 28.300961 69.272544 28.475924 69.587477 28.599989 C 69.740172 28.666793 70.188714 28.711329 70.936283 28.724054 C 71.693395 28.739959 72.536398 28.749503 73.468473 28.749503 C 74.406911 28.749503 75.24037 28.739959 75.975215 28.724054 C 76.71324 28.711329 77.161781 28.701786 77.314476 28.701786 C 77.597598 28.701786 77.737569 28.82585 77.737569 29.067617 L 77.737569 32.961337 C 77.737569 33.304901 77.731206 33.600747 77.715301 33.855239 C 77.699395 34.106549 77.693033 34.373765 77.693033 34.653706 C 77.693033 34.908198 77.565787 35.032262 77.314476 35.032262 C 76.223344 35.032262 75.253095 34.994089 74.406911 34.917741 C 73.567089 34.835031 72.879962 34.806401 72.345529 34.838212 C 72.001966 34.870024 71.601142 34.882748 71.143057 34.882748 C 70.694516 34.882748 70.265061 34.949553 69.861056 35.079979 C 69.457051 35.200863 69.158023 35.448992 68.967154 35.824367 C 68.655402 36.419241 68.699938 36.909137 69.107125 37.300418 C 69.517492 37.688518 69.972396 37.949371 70.468654 38.076617 C 70.879022 38.16887 71.467534 38.200682 72.231008 38.16887 C 72.994483 38.14024 73.831124 38.086161 74.73775 38.009813 C 75.647557 37.927103 76.503285 37.869843 77.314476 37.838031 C 77.597598 37.838031 77.737569 37.962096 77.737569 38.216587 Z M 103.940652 38.547426 C 103.940652 38.859179 103.956558 39.39043 103.988369 40.137998 C 104.017 40.885567 104.055173 41.684034 104.102891 42.530219 C 104.153789 43.370041 104.198325 44.095342 104.226955 44.706121 C 104.258767 45.316901 104.274672 45.622291 104.274672 45.622291 C 104.274672 45.873601 104.131521 46.000847 103.848399 46.000847 C 103.848399 46.000847 103.574821 46.000847 103.024483 46.000847 C 102.483688 46.000847 101.806105 46.000847 100.988551 46.000847 C 100.18054 46.000847 99.334356 46.000847 98.459541 46.000847 C 97.581545 46.000847 96.798984 46.000847 96.111857 46.000847 C 95.42473 46.000847 94.969826 46.000847 94.750327 46.000847 C 94.343141 46.000847 93.681463 45.914956 92.75575 45.749537 C 91.833218 45.571393 90.872512 45.014692 89.873633 44.076255 C 89.154695 43.420939 88.594813 42.632015 88.190808 41.706303 C 87.783622 40.783771 87.494137 39.880326 87.319174 38.992787 C 87.150574 38.102066 87.067864 37.341773 87.067864 36.715087 C 87.067864 36.371524 87.067864 35.789375 87.067864 34.965458 C 87.067864 34.131998 87.067864 33.225372 87.067864 32.239218 C 87.067864 31.256244 87.05514 30.301901 87.032872 29.379369 C 87.016966 28.453656 87.010604 27.696544 87.010604 27.098489 C 87.010604 26.503615 87.010604 26.207769 87.010604 26.207769 C 87.010604 24.582204 87.220559 23.15387 87.64047 21.925949 C 88.066743 20.688484 88.671161 19.711872 89.44736 18.996115 C 90.204472 18.239003 91.111098 17.637766 92.1736 17.186044 C 93.232921 16.734322 94.56264 16.511641 96.156393 16.511641 C 96.156393 16.511641 96.414065 16.511641 96.923048 16.511641 C 97.441575 16.511641 98.084166 16.511641 98.847641 16.511641 C 99.617477 16.511641 100.384133 16.511641 101.147608 16.511641 C 101.920626 16.511641 102.560036 16.511641 103.0722 16.511641 C 103.590726 16.511641 103.848399 16.511641 103.848399 16.511641 C 104.131521 16.511641 104.274672 16.632525 104.274672 16.877473 C 104.274672 16.877473 104.265129 17.278297 104.249223 18.079946 C 104.236499 18.87205 104.220593 19.858205 104.204687 21.032047 C 104.188781 22.199527 104.182419 23.395637 104.182419 24.614015 C 104.182419 25.835575 104.166513 26.885352 104.134702 27.763348 C 104.134702 28.04647 103.994732 28.167353 103.71161 28.12918 C 102.865426 28.100549 101.891995 28.04647 100.794501 27.970122 C 99.703368 27.893775 98.828554 27.887413 98.173238 27.947854 C 97.829675 27.976485 97.381133 27.998753 96.833976 28.014658 C 96.290001 28.030564 95.774655 28.170534 95.28794 28.437751 C 94.807588 28.704967 94.486292 29.245761 94.324054 30.053772 C 94.234982 30.648646 94.187265 31.323048 94.187265 32.080161 C 94.187265 32.827729 94.20317 33.463958 94.234982 33.992028 C 94.263612 34.615532 94.279518 35.159508 94.279518 35.617593 C 94.279518 36.066134 94.390858 36.409698 94.610357 36.648283 C 94.833037 36.883688 95.28794 37.00139 95.975068 37.00139 C 97.126642 37.00139 97.657893 36.25064 97.56564 34.745959 C 97.533828 34.281512 97.51156 33.673914 97.495654 32.926345 C 97.479749 32.172414 97.489292 31.542547 97.517922 31.036745 C 97.517922 30.947673 97.556096 30.817246 97.632444 30.648646 C 97.708791 30.473683 97.953739 30.384611 98.367288 30.384611 C 98.395918 30.384611 98.675859 30.384611 99.200748 30.384611 C 99.73518 30.384611 100.339597 30.394154 101.010819 30.406879 C 101.68204 30.422784 102.280095 30.432328 102.808165 30.432328 C 103.342597 30.432328 103.6289 30.416422 103.667074 30.384611 C 103.940652 30.384611 104.077441 30.527762 104.077441 30.807703 C 104.077441 31.122636 104.077441 31.440751 104.077441 31.77159 C 104.077441 32.099247 104.077441 32.420543 104.077441 32.732295 C 104.077441 33.540306 104.071079 34.227433 104.055173 34.793676 C 104.039268 35.356739 104.026543 35.922983 104.010637 36.486045 C 103.994732 37.042745 103.972464 37.729872 103.940652 38.547426 Z M 127.283887 43.42412 C 127.382503 43.859937 127.493843 44.289391 127.614726 44.718846 C 127.738791 45.138757 127.862856 45.56503 127.993283 46.000847 L 118.516654 46.000847 C 118.484843 45.778167 118.468937 45.568211 118.468937 45.37098 C 118.468937 45.164206 118.468937 44.951069 118.468937 44.728389 C 118.376684 43.859937 118.293974 43.102825 118.217627 42.463415 C 118.141279 41.820824 118.023577 41.124153 117.861339 40.367041 C 117.708644 39.778529 117.613209 39.33635 117.575036 39.040504 C 117.546405 38.741476 117.1424 38.579238 116.36302 38.547426 C 115.796776 38.515615 115.450032 38.725571 115.322786 39.177293 C 115.198721 39.625834 115.093743 40.338411 115.00149 41.305478 C 114.941048 42.091221 114.877426 42.880145 114.816984 43.665887 C 114.756542 44.442086 114.724731 45.221467 114.724731 46.000847 L 106.565096 46.000847 C 107.061355 43.809039 107.471722 41.601325 107.79938 39.371343 C 108.127038 37.134998 108.46742 34.908198 108.817346 32.687759 C 109.16091 30.375067 109.60627 28.084644 110.147064 25.816488 C 110.697402 23.551513 111.126857 21.245184 111.44179 18.903862 C 111.530862 18.086308 111.607209 17.287841 111.670832 16.511641 L 122.041362 16.511641 C 122.254499 18.722537 122.556707 20.911164 122.944807 23.071161 C 123.34245 25.231157 123.75918 27.372067 124.191815 29.49389 C 124.697617 31.803401 125.190695 34.13518 125.671047 36.486045 C 126.157762 38.830548 126.695376 41.14324 127.283887 43.42412 Z M 116.076717 25.749684 C 115.924022 27.022141 115.784052 28.15781 115.653625 29.150327 C 115.52956 30.1333 115.539104 30.915862 115.675893 31.49483 C 115.822225 32.067436 116.191238 32.369645 116.786112 32.401456 C 116.817923 32.401456 116.833829 32.401456 116.833829 32.401456 C 116.894271 32.401456 116.954713 32.363282 117.015154 32.286935 C 117.08514 32.210587 117.148762 32.156508 117.209204 32.124697 C 117.393711 32.086523 117.498688 31.873386 117.5305 31.485287 C 117.562311 31.094006 117.568673 30.645465 117.552768 30.1333 C 117.536862 29.614774 117.514594 29.169414 117.485964 28.794039 C 117.454152 28.167353 117.400073 27.543849 117.323725 26.917164 C 117.247378 26.290478 117.053328 25.791039 116.741576 25.415664 C 116.642961 25.326592 116.515715 25.301143 116.36302 25.34886 C 116.210325 25.393396 116.114891 25.527004 116.076717 25.749684 Z M 145.989015 38.261123 C 146.243506 39.078678 146.47573 39.994847 146.688866 41.009632 C 146.911546 42.024417 147.096053 42.953311 147.248748 43.802676 C 147.410986 44.642498 147.519145 45.20238 147.582768 45.485502 C 147.611398 45.829065 147.50642 46.000847 147.261472 46.000847 L 140.41565 46.000847 C 140.285223 46.000847 140.189789 45.905413 140.129347 45.714544 C 140.068905 45.501407 139.973471 45.071953 139.843044 44.432543 C 139.722161 43.789952 139.579009 43.086919 139.419952 42.326626 C 139.267257 41.553608 139.095475 40.863299 138.904607 40.25252 C 138.7201 39.64174 138.548319 39.247278 138.389261 39.062772 C 138.268378 38.903715 138.08069 38.865541 137.82938 38.948251 C 137.574889 39.024598 137.450824 39.190018 137.450824 39.441328 C 137.390382 40.408396 137.352208 41.416818 137.336303 42.463415 C 137.320397 43.50683 137.326759 44.547064 137.358571 45.577755 C 137.358571 45.857696 137.266318 46.000847 137.084992 46.000847 L 130.512749 46.000847 C 130.331423 46.000847 130.23917 45.857696 130.23917 45.577755 L 130.23917 41.639498 C 130.23917 41.486804 130.245533 41.073255 130.261438 40.402033 C 130.277344 39.721269 130.283706 38.932345 130.283706 38.032081 C 130.283706 37.125455 130.283706 36.215648 130.283706 35.309022 C 130.283706 34.399215 130.277344 33.616653 130.261438 32.961337 C 130.245533 32.306022 130.23917 31.914741 130.23917 31.793858 L 130.23917 25.931009 C 130.267801 24.429509 130.299612 22.905741 130.331423 21.362886 C 130.360054 19.813669 130.360054 18.289901 130.331423 16.78522 C 130.331423 16.600714 130.375959 16.511641 130.468213 16.511641 L 141.398624 16.511641 C 141.926694 16.511641 142.470669 16.64525 143.036913 16.912466 C 143.603157 17.170138 144.115321 17.523245 144.582949 17.965424 C 145.146011 18.429871 145.610458 18.951579 145.966747 19.533728 C 146.326216 20.112697 146.567983 20.558057 146.688866 20.87299 C 147.131045 21.801884 147.36645 22.714872 147.398261 23.608774 C 147.430073 24.502675 147.442797 25.574721 147.442797 26.824911 C 147.442797 27.381611 147.420529 28.030564 147.375993 28.771771 C 147.328276 29.503434 147.258291 30.196923 147.159676 30.85542 C 147.067422 31.510736 146.943358 32.026081 146.790663 32.401456 C 146.631606 32.77365 146.408926 33.196742 146.128985 33.670733 C 145.845863 34.13518 145.585009 34.542366 145.349605 34.882748 C 145.120562 35.226312 145.006041 35.414 145.006041 35.445811 C 144.97423 35.445811 144.961505 35.445811 144.961505 35.445811 C 144.961505 35.445811 144.961505 35.461717 144.961505 35.490347 C 144.707014 35.681216 144.745187 35.957975 145.076026 36.314263 C 145.403684 36.673733 145.709074 37.322686 145.989015 38.261123 Z M 139.843044 28.978545 C 139.913029 28.320048 139.925754 27.721993 139.88758 27.181199 C 139.85895 26.630861 139.811233 26.102791 139.750791 25.60017 C 139.658538 24.760348 139.480394 24.222735 139.213178 23.98733 C 138.945962 23.748744 138.672383 23.631042 138.389261 23.631042 C 138.204755 23.631042 138.032973 23.688302 137.873916 23.802824 C 137.721221 23.910983 137.644874 24.025504 137.644874 24.146387 C 137.644874 24.337256 137.644874 24.572661 137.644874 24.855782 C 137.644874 25.138904 137.644874 25.415664 137.644874 25.692423 C 137.644874 26.195044 137.638511 26.863084 137.622606 27.696544 C 137.6067 28.52046 137.613062 29.198044 137.644874 29.732476 C 137.644874 29.945613 137.676685 30.193742 137.737127 30.476864 C 137.797569 30.759986 138.013886 30.915862 138.389261 30.947673 C 138.701014 30.947673 139.006403 30.798159 139.305431 30.499132 C 139.601277 30.203286 139.782602 29.694303 139.843044 28.978545 Z M 167.134079 37.367222 C 167.134079 38.369282 166.876407 39.495407 166.35788 40.745597 C 165.836172 41.995787 165.018618 43.045564 163.895675 43.89493 C 162.833172 44.70294 161.761127 45.234191 160.679538 45.485502 C 159.60113 45.736812 158.891735 45.864058 158.548171 45.864058 C 158.268231 45.892688 157.851501 45.914956 157.301163 45.930862 C 156.760368 45.946768 156.206849 45.95313 155.640606 45.95313 C 155.077543 45.95313 154.673538 45.95313 154.42859 45.95313 C 154.396778 45.95313 154.183642 45.962673 153.785999 45.978579 C 153.397899 45.991304 152.952539 46.000847 152.446737 46.000847 C 151.950479 46.000847 151.517843 46.000847 151.142468 46.000847 C 150.767093 46.000847 150.582587 46.000847 150.582587 46.000847 C 150.299465 46.000847 150.172219 45.844971 150.20403 45.530038 C 150.235842 45.278727 150.25811 44.70294 150.274016 43.802676 C 150.28674 42.892869 150.302646 41.855816 150.318552 40.688336 C 150.334457 39.514494 150.334457 38.388369 150.318552 37.309961 C 150.302646 36.228372 150.296284 35.372645 150.296284 34.745959 C 150.235842 33.371705 150.181762 32.000632 150.134045 30.626378 C 150.089509 29.245761 150.051336 27.868326 150.019524 26.494072 L 150.019524 18.433052 C 150.019524 18.181742 150.029068 17.920888 150.044973 17.656853 C 150.057698 17.389637 150.067241 17.128783 150.067241 16.877473 C 150.095872 16.632525 150.219936 16.511641 150.433073 16.511641 L 156.442254 16.511641 C 156.442254 16.511641 156.34682 16.511641 156.155951 16.511641 C 155.974626 16.511641 155.825112 16.511641 155.710591 16.511641 C 155.602432 16.511641 155.656511 16.511641 155.869648 16.511641 C 156.092328 16.511641 156.610855 16.511641 157.428409 16.511641 C 158.519541 16.511641 159.416624 16.549815 160.116475 16.626163 C 160.819508 16.70251 161.49073 16.902922 162.133321 17.23058 C 162.772731 17.561419 163.533024 18.099032 164.41102 18.846601 C 165.349457 19.660974 165.998411 20.586687 166.35788 21.617378 C 166.714168 22.648068 166.933667 23.646948 167.010015 24.614015 C 167.092724 25.584264 167.134079 26.398637 167.134079 27.053953 C 167.134079 27.276633 167.134079 27.728355 167.134079 28.415483 C 167.134079 29.10261 167.134079 29.907439 167.134079 30.833152 C 167.134079 31.755684 167.134079 32.678216 167.134079 33.600747 C 167.134079 34.516917 167.134079 35.321746 167.134079 36.018417 C 167.134079 36.705544 167.134079 37.154085 167.134079 37.367222 Z M 159.671115 34.049289 C 159.7411 33.696182 159.788818 33.193561 159.820629 32.538245 C 159.849259 31.879748 159.858803 31.224433 159.842897 30.569117 C 159.826991 29.91062 159.785636 29.398456 159.715651 29.023081 C 159.594768 27.931949 159.37845 27.222554 159.063517 26.894896 C 158.751765 26.564057 158.468643 26.401818 158.217332 26.401818 C 157.943754 26.401818 157.733798 26.513158 157.587466 26.732657 C 157.450677 26.945794 157.380691 27.432509 157.380691 28.18644 L 157.380691 33.992028 C 157.380691 34.555091 157.418865 35.051349 157.495213 35.480804 C 157.57156 35.900715 157.813327 36.11067 158.217332 36.11067 C 158.659511 36.11067 158.980807 35.961156 159.178038 35.662129 C 159.384812 35.366282 159.550232 34.825488 159.671115 34.049289 Z M 186.62813 38.216587 C 186.62813 38.620593 186.62813 39.065953 186.62813 39.555849 C 186.62813 40.036202 186.62813 40.446569 186.62813 40.790133 C 186.62813 41.044625 186.634492 41.42 186.650398 41.925801 C 186.666304 42.42206 186.688572 42.959673 186.720383 43.538641 C 186.758557 44.11761 186.784006 44.610687 186.799912 45.014692 C 186.815818 45.418698 186.82218 45.622291 186.82218 45.622291 C 186.82218 45.873601 186.698115 46.000847 186.443624 46.000847 L 170.22297 46.000847 C 169.780791 46.000847 169.574017 45.781348 169.605828 45.348712 C 169.704444 42.997847 169.761704 40.6438 169.77761 38.283391 C 169.793516 35.926164 169.815784 33.559393 169.844414 31.186259 C 169.876225 28.873567 169.958935 26.54497 170.098905 24.203648 C 170.242057 21.852782 170.143441 19.521004 169.799878 17.208312 C 169.768066 17.017443 169.815784 16.855205 169.936667 16.715235 C 170.060732 16.578446 170.216608 16.511641 170.407476 16.511641 L 186.249574 16.511641 C 186.440443 16.511641 186.567688 16.600714 186.62813 16.78522 C 186.62813 16.817031 186.621768 16.957002 186.605862 17.208312 C 186.589956 17.459622 186.567688 17.714114 186.535877 17.965424 C 186.535877 18.118119 186.519971 18.474407 186.491341 19.040651 C 186.459529 19.603714 186.437261 20.192225 186.421356 20.803005 C 186.40545 21.407422 186.399088 21.865507 186.399088 22.177259 C 186.399088 22.489011 186.414993 22.877111 186.443624 23.332014 C 186.475435 23.783737 186.513609 24.187742 186.558145 24.547211 C 186.605862 24.906681 186.62813 25.084825 186.62813 25.084825 C 186.62813 25.336135 186.48816 25.463381 186.205038 25.463381 C 186.205038 25.463381 185.979177 25.453837 185.527454 25.441113 C 185.078913 25.425207 184.499945 25.415664 183.787368 25.415664 C 183.087517 25.415664 182.362216 25.425207 181.614647 25.441113 C 180.867078 25.453837 180.195857 25.507917 179.597802 25.60017 C 179.126992 25.660612 178.637096 25.803763 178.134475 26.023262 C 177.638217 26.245942 177.374182 26.637223 177.342371 27.203467 C 177.31374 27.54703 177.415537 27.836514 177.654123 28.071919 C 177.889527 28.300961 178.163106 28.475924 178.478039 28.599989 C 178.630734 28.666793 179.079275 28.711329 179.826844 28.724054 C 180.583956 28.739959 181.426959 28.749503 182.359035 28.749503 C 183.297472 28.749503 184.130932 28.739959 184.865776 28.724054 C 185.603802 28.711329 186.052343 28.701786 186.205038 28.701786 C 186.48816 28.701786 186.62813 28.82585 186.62813 29.067617 L 186.62813 32.961337 C 186.62813 33.304901 186.621768 33.600747 186.605862 33.855239 C 186.589956 34.106549 186.583594 34.373765 186.583594 34.653706 C 186.583594 34.908198 186.456348 35.032262 186.205038 35.032262 C 185.113905 35.032262 184.143657 34.994089 183.297472 34.917741 C 182.45765 34.835031 181.770523 34.806401 181.236091 34.838212 C 180.892527 34.870024 180.491703 34.882748 180.033618 34.882748 C 179.585077 34.882748 179.155623 34.949553 178.751617 35.079979 C 178.347612 35.200863 178.048584 35.448992 177.857716 35.824367 C 177.545964 36.419241 177.5905 36.909137 177.997686 37.300418 C 178.408054 37.688518 178.862957 37.949371 179.359216 38.076617 C 179.769583 38.16887 180.358095 38.200682 181.12157 38.16887 C 181.885044 38.14024 182.721685 38.086161 183.628311 38.009813 C 184.538118 37.927103 185.393846 37.869843 186.205038 37.838031 C 186.48816 37.838031 186.62813 37.962096 186.62813 38.216587 Z M 206.602534 32.595506 C 206.602534 33.343075 206.602534 34.256063 206.602534 35.33129 C 206.602534 36.406516 206.59299 37.532641 206.580266 38.706484 C 206.56436 39.883507 206.554817 40.987364 206.554817 42.014873 C 206.554817 43.045564 206.554817 43.914016 206.554817 44.613868 C 206.554817 45.316901 206.554817 45.733631 206.554817 45.864058 C 206.554817 45.95313 206.526186 46.000847 206.465744 46.000847 L 199.422691 46.000847 C 199.36225 46.000847 199.333619 45.969036 199.333619 45.908594 C 199.209555 45.533219 199.091853 45.161025 198.977331 44.78565 C 198.869172 44.403913 198.754651 44.028538 198.633768 43.653163 C 198.382457 42.873782 198.159777 41.963975 197.968909 40.917379 C 197.787583 39.86442 197.523548 39.024598 197.179985 38.397913 C 197.020928 38.054349 196.791885 37.971639 196.492858 38.146602 C 196.197011 38.315203 196.047498 38.604687 196.047498 39.018236 C 195.987056 40.017115 195.977512 41.159146 196.02523 42.441147 C 196.069766 43.723148 196.107939 44.861997 196.139751 45.864058 C 196.139751 45.95313 196.107939 46.000847 196.047498 46.000847 L 189.487979 45.95313 C 189.427537 45.95313 189.395725 45.9245 189.395725 45.864058 C 189.395725 43.268244 189.427537 40.688336 189.487979 38.124334 C 189.54842 35.560332 189.580232 32.980424 189.580232 30.384611 C 189.580232 29.506615 189.570688 28.475924 189.554783 27.29572 C 189.542058 26.102791 189.532515 24.890775 189.532515 23.65331 C 189.532515 22.419026 189.526152 21.26109 189.510247 20.185863 C 189.494341 19.110636 189.478435 18.242184 189.465711 17.586868 C 189.449805 16.931552 189.440261 16.600714 189.440261 16.600714 C 189.440261 16.540272 189.472073 16.511641 189.532515 16.511641 L 196.607379 16.511641 C 196.63919 16.511641 196.674183 16.540272 196.712357 16.600714 C 196.925493 17.319652 197.129087 18.184923 197.329499 19.199708 C 197.536273 20.214493 197.739866 21.232459 197.946641 22.247244 C 198.153415 23.262029 198.398363 24.114576 198.678304 24.811246 C 198.802368 25.215252 199.050498 25.336135 199.422691 25.177078 C 199.705813 25.084825 199.877595 24.804884 199.938037 24.340437 C 200.00166 23.685121 200.03029 22.886654 200.03029 21.948217 C 200.03029 21.009779 200.03029 20.055436 200.03029 19.085187 C 200.03029 18.118119 200.03029 17.303746 200.03029 16.648431 C 200.03029 16.556177 200.065283 16.511641 200.135268 16.511641 L 206.602534 16.511641 C 206.662975 16.511641 206.694787 16.556177 206.694787 16.648431 C 206.694787 16.677061 206.694787 16.708872 206.694787 16.740684 C 206.694787 19.396939 206.678881 22.043651 206.64707 24.684001 C 206.618439 27.32435 206.602534 29.961519 206.602534 32.595506 Z M 232.996486 34.370584 C 232.996486 34.873205 232.977399 35.639861 232.939225 36.670551 C 232.907414 37.701242 232.891508 38.773288 232.891508 39.886688 C 232.891508 40.993726 232.942407 41.935345 233.041022 42.714725 L 233.041022 45.530038 C 233.041022 45.844971 232.885146 46.000847 232.573394 46.000847 C 232.573394 46.000847 232.678372 46.000847 232.891508 46.000847 C 233.114188 46.000847 233.308238 46.000847 233.476839 46.000847 C 233.651802 46.000847 233.715425 46.000847 233.670889 46.000847 C 233.626353 46.000847 233.343231 46.000847 232.824704 46.000847 C 232.31254 46.000847 231.459993 46.000847 230.270246 46.000847 C 228.301117 46.000847 226.729632 45.886326 225.55579 45.657283 C 224.38831 45.418698 223.475322 45.129214 222.820006 44.78565 C 222.161509 44.435724 221.611171 44.136697 221.168992 43.89493 C 220.513677 43.481381 219.871086 43.010572 219.247581 42.485683 C 218.620896 41.951251 218.121456 41.385007 217.746081 40.790133 C 216.938071 39.479502 216.416363 38.299297 216.177777 37.252701 C 215.942373 36.209286 215.82467 35.184957 215.82467 34.186078 L 215.82467 28.507736 C 215.82467 28.507736 215.82467 28.596808 215.82467 28.771771 C 215.82467 28.940371 215.82467 29.10261 215.82467 29.264848 C 215.82467 29.417543 215.82467 29.455717 215.82467 29.379369 C 215.82467 29.303022 215.82467 28.997632 215.82467 28.4632 C 215.82467 27.432509 215.901018 26.430449 216.053713 25.463381 C 216.21277 24.493132 216.43545 23.59923 216.715391 22.784858 C 216.969882 22.005477 217.357982 21.302444 217.886052 20.67894 C 218.417303 20.052255 218.983546 19.441475 219.57842 18.846601 C 220.548669 17.946337 221.846576 17.332377 223.472141 17.001538 C 225.097705 16.67388 226.783712 16.511641 228.53016 16.511641 C 229.882146 16.511641 230.884206 16.511641 231.542703 16.511641 C 232.198019 16.511641 232.611568 16.511641 232.776987 16.511641 C 232.955131 16.511641 232.993305 16.511641 232.891508 16.511641 C 232.802436 16.511641 232.67519 16.511641 232.516133 16.511641 C 232.363438 16.511641 232.287091 16.511641 232.287091 16.511641 C 232.376163 16.511641 232.525677 16.597532 232.732451 16.772495 C 232.939225 16.941096 233.041022 17.087429 233.041022 17.208312 L 233.041022 19.600532 C 233.009211 19.724597 232.983761 19.848662 232.961493 19.979089 C 232.945588 20.099972 232.939225 20.224037 232.939225 20.34492 C 232.907414 20.628042 232.891508 21.168836 232.891508 21.970485 C 232.891508 22.765771 232.907414 23.615136 232.939225 24.524943 C 232.977399 25.431569 233.002848 26.214131 233.018754 26.869447 C 233.03466 27.527943 233.041022 27.855601 233.041022 27.855601 C 233.041022 28.167353 232.901052 28.323229 232.61793 28.323229 C 232.175751 28.294599 231.580877 28.294599 230.833308 28.323229 C 230.082558 28.355041 229.354076 28.393215 228.644681 28.437751 C 227.944829 28.485468 227.454933 28.507736 227.181355 28.507736 C 226.424242 28.539547 225.86118 28.733597 225.485805 29.093066 C 225.11043 29.449354 224.859119 29.843816 224.728693 30.27009 C 224.607809 30.690001 224.547367 31.027202 224.547367 31.278512 C 224.547367 31.622076 224.601447 31.972002 224.706425 32.331471 C 224.820946 32.69094 224.989546 32.980424 225.212226 33.199923 C 225.58442 33.543487 226.020237 33.782073 226.516496 33.9125 C 227.019116 34.033383 227.58536 34.125636 228.208864 34.186078 C 228.83555 34.24652 229.478141 34.262425 230.133456 34.230614 C 230.788772 34.201984 231.342291 34.170172 231.794014 34.141542 C 232.242555 34.10973 232.503409 34.093825 232.573394 34.093825 C 232.78653 34.093825 232.926501 34.186078 232.996486 34.370584 Z M 236.126732 16.511641 L 244.757176 16.511641 C 245.100739 16.511641 245.256615 16.696148 245.227985 17.071523 C 245.158 17.978149 245.116645 19.23152 245.100739 20.825273 C 245.084833 22.412664 245.078471 24.140025 245.078471 26.000994 C 245.078471 27.861964 245.084833 29.678397 245.100739 31.450294 C 245.116645 33.212648 245.138913 34.765046 245.170724 36.11067 C 245.208898 37.453113 245.227985 38.39155 245.227985 38.925983 C 245.256615 40.017115 245.304332 41.101885 245.364774 42.177112 C 245.425216 43.252339 245.501563 44.34029 245.593817 45.437784 C 245.622447 45.813159 245.450665 46.000847 245.078471 46.000847 L 236.171268 46.000847 C 236.050384 46.000847 236.002667 45.9245 236.034479 45.771805 C 236.09492 45.358256 236.139456 44.607506 236.171268 43.516373 C 236.203079 42.425241 236.215804 41.200501 236.215804 39.842152 C 236.215804 38.47426 236.209442 37.192259 236.193536 35.996149 C 236.17763 34.787314 236.155362 33.874326 236.126732 33.24764 C 236.126732 32.500072 236.117188 31.513917 236.101283 30.292358 C 236.088558 29.073979 236.072652 27.760167 236.056747 26.354101 C 236.040841 24.944854 236.028116 23.573781 236.012211 22.247244 C 235.996305 20.917526 235.980399 19.753227 235.964493 18.754348 C 235.951769 17.755469 235.942225 17.068342 235.942225 16.692967 C 235.974037 16.664336 236.034479 16.600714 236.126732 16.511641 Z M 265.001976 16.600714 C 265.001976 17.854084 265.033788 19.113817 265.09423 20.379913 C 265.164215 21.639646 265.164215 22.896198 265.09423 24.146387 C 265.09423 24.741261 265.078324 25.345679 265.049694 25.956458 C 265.017882 26.564057 265.001976 27.18438 265.001976 27.811065 C 265.001976 28.091006 264.896999 28.246882 264.683862 28.278693 C 263.92675 28.370947 263.230079 28.386852 262.587488 28.323229 C 261.944897 28.262788 261.483631 28.339135 261.20369 28.552272 C 261.140068 28.615895 261.038271 28.717691 260.891938 28.864024 C 260.755149 29.000813 260.672439 29.210769 260.640628 29.49389 C 260.580186 29.745201 260.542013 30.292358 260.526107 31.141723 C 260.510201 31.981545 260.497476 32.986787 260.481571 34.16381 C 260.465665 35.33129 260.459303 36.546487 260.459303 37.815763 C 260.459303 39.081859 260.459303 40.28115 260.459303 41.410456 C 260.459303 42.530219 260.465665 43.468656 260.481571 44.225769 C 260.497476 44.973337 260.503839 45.393248 260.503839 45.485502 C 260.503839 45.829065 260.363868 46.000847 260.080747 46.000847 L 252.856368 46.000847 C 252.61142 46.000847 252.474631 45.844971 252.446001 45.530038 C 252.446001 45.126032 252.452363 44.438905 252.468269 43.468656 C 252.484175 42.501589 252.506443 41.404094 252.535073 40.185716 C 252.566884 38.964156 252.598696 37.755322 252.627326 36.55603 C 252.659137 35.350377 252.681406 34.313324 252.697311 33.44169 C 252.713217 32.563694 252.703674 32.000632 252.675043 31.74614 C 252.61142 31.275331 252.589152 30.804522 252.605058 30.340075 C 252.620964 29.866084 252.455544 29.458898 252.111981 29.115334 C 251.828859 28.870386 251.52665 28.695423 251.195811 28.587264 C 250.868153 28.472743 250.534133 28.399577 250.19057 28.370947 C 249.786564 28.339135 249.417552 28.323229 249.089894 28.323229 C 248.762236 28.323229 248.596817 28.323229 248.596817 28.323229 C 248.316876 28.323229 248.173724 28.167353 248.173724 27.855601 C 248.173724 27.855601 248.173724 27.645646 248.173724 27.225735 C 248.173724 26.799461 248.167362 26.328652 248.151456 25.816488 C 248.135551 25.297961 248.113283 24.897137 248.084652 24.614015 C 248.046479 24.18138 248.011486 23.551513 247.979675 22.727597 C 247.951044 21.894137 247.935139 21.032047 247.935139 20.138146 C 247.935139 19.247425 247.935139 18.48077 247.935139 17.838179 C 247.935139 17.198769 247.935139 16.845662 247.935139 16.78522 C 247.935139 16.600714 248.075109 16.511641 248.358231 16.511641 L 264.912904 16.511641 C 264.912904 16.511641 264.925629 16.518004 264.95744 16.533909 C 264.989252 16.549815 265.001976 16.572083 265.001976 16.600714 Z M 277.748821 16.511641 L 285.488544 16.511641 C 285.618971 16.511641 285.647601 16.600714 285.580797 16.78522 C 285.548986 16.915647 285.453552 17.338739 285.294495 18.054496 C 285.1418 18.773435 284.954112 19.667336 284.734613 20.736201 C 284.518295 21.795522 284.270166 22.880292 283.990225 23.98733 C 283.707104 25.091187 283.439888 26.083704 283.188577 26.9617 C 282.600065 28.99127 282.078358 30.782254 281.620273 32.331471 C 281.168551 33.880688 280.929965 34.796858 280.898153 35.079979 C 280.837712 35.576238 280.796357 36.002511 280.770908 36.36198 C 280.758183 36.718269 280.74864 37.150904 280.74864 37.653525 C 280.74864 38.248399 280.732734 38.852816 280.704104 39.463596 C 280.672292 40.064832 280.643662 40.666068 280.61185 41.260942 C 280.61185 42.014873 280.605488 42.775167 280.589582 43.538641 C 280.573677 44.302116 280.580039 45.062409 280.61185 45.816341 C 280.61185 45.940405 280.580039 46.000847 280.519597 46.000847 L 271.704647 46.000847 C 271.612394 46.000847 271.567858 45.940405 271.567858 45.816341 C 271.567858 45.749537 271.57422 45.418698 271.590126 44.833367 C 271.606032 44.238493 271.621937 43.519555 271.637843 42.679733 C 271.650568 41.833548 271.666473 40.971458 271.682379 40.093462 C 271.698285 39.215467 271.704647 38.439268 271.704647 37.768046 C 271.704647 37.096825 271.704647 36.651465 271.704647 36.428784 C 271.704647 35.872084 271.682379 35.509434 271.637843 35.340833 C 271.590126 35.16587 271.504235 34.825488 271.373808 34.322867 C 271.313366 34.103368 271.170215 33.483045 270.950716 32.46826 C 270.737579 31.453475 270.40674 30.101489 269.964561 28.415483 C 269.690983 27.257546 269.40468 26.055074 269.105652 24.811246 C 268.809806 23.557876 268.533046 22.364947 268.281736 21.226097 C 268.030426 20.080885 267.817289 19.104274 267.642326 18.296263 C 267.473725 17.478709 267.359204 16.960183 267.298763 16.740684 C 267.266951 16.587989 267.298763 16.511641 267.391016 16.511641 L 275.083022 16.511641 C 275.143464 16.511641 275.175275 16.572083 275.175275 16.692967 C 275.235717 17.914526 275.312064 19.136085 275.404318 20.357645 C 275.502933 21.569661 275.614273 22.788039 275.735157 24.009598 C 275.795598 24.413603 275.96738 24.614015 276.250502 24.614015 C 276.501812 24.614015 276.673594 24.413603 276.765847 24.009598 C 276.864463 23.573781 276.959897 22.982089 277.05215 22.23452 C 277.144403 21.477407 277.227113 20.704389 277.303461 19.909103 C 277.38617 19.110636 277.459337 18.404422 277.519778 17.793643 C 277.583401 17.182863 277.627937 16.801126 277.659749 16.648431 C 277.688379 16.556177 277.72019 16.511641 277.748821 16.511641 Z M 277.748821 16.511641 " stroke="#901739" stroke-width="12.310357" stroke-opacity="1" stroke-miterlimit="4"/><g fill="#ffffff" fill-opacity="1"><g transform="translate(11.568994, 204.545835)"><g><path d="M 22.515625 -14.28125 C 22.515625 -13.664062 22.492188 -12.722656 22.453125 -11.453125 C 22.410156 -10.191406 22.390625 -8.878906 22.390625 -7.515625 C 22.390625 -6.148438 22.453125 -4.988281 22.578125 -4.03125 L 22.578125 -0.578125 C 22.578125 -0.191406 22.382812 0 22 0 C 22 0 22.128906 0 22.390625 0 C 22.660156 0 22.898438 0 23.109375 0 C 23.328125 0 23.40625 0 23.34375 0 C 23.289062 0 22.945312 0 22.3125 0 C 21.675781 0 20.628906 0 19.171875 0 C 16.753906 0 14.828125 -0.140625 13.390625 -0.421875 C 11.953125 -0.710938 10.828125 -1.066406 10.015625 -1.484375 C 9.210938 -1.910156 8.539062 -2.28125 8 -2.59375 C 7.195312 -3.09375 6.410156 -3.664062 5.640625 -4.3125 C 4.867188 -4.96875 4.253906 -5.660156 3.796875 -6.390625 C 2.796875 -8.003906 2.148438 -9.453125 1.859375 -10.734375 C 1.578125 -12.023438 1.4375 -13.285156 1.4375 -14.515625 L 1.4375 -21.484375 C 1.4375 -21.484375 1.4375 -21.375 1.4375 -21.15625 C 1.4375 -20.945312 1.4375 -20.742188 1.4375 -20.546875 C 1.4375 -20.359375 1.4375 -20.3125 1.4375 -20.40625 C 1.4375 -20.507812 1.4375 -20.882812 1.4375 -21.53125 C 1.4375 -22.800781 1.53125 -24.03125 1.71875 -25.21875 C 1.914062 -26.40625 2.1875 -27.5 2.53125 -28.5 C 2.84375 -29.457031 3.320312 -30.320312 3.96875 -31.09375 C 4.625 -31.863281 5.316406 -32.613281 6.046875 -33.34375 C 7.234375 -34.445312 8.820312 -35.203125 10.8125 -35.609375 C 12.8125 -36.015625 14.890625 -36.21875 17.046875 -36.21875 C 18.691406 -36.21875 19.914062 -36.21875 20.71875 -36.21875 C 21.53125 -36.21875 22.039062 -36.21875 22.25 -36.21875 C 22.46875 -36.21875 22.515625 -36.21875 22.390625 -36.21875 C 22.273438 -36.21875 22.125 -36.21875 21.9375 -36.21875 C 21.75 -36.21875 21.65625 -36.21875 21.65625 -36.21875 C 21.769531 -36.21875 21.953125 -36.109375 22.203125 -35.890625 C 22.453125 -35.679688 22.578125 -35.503906 22.578125 -35.359375 L 22.578125 -32.421875 C 22.535156 -32.265625 22.503906 -32.109375 22.484375 -31.953125 C 22.460938 -31.796875 22.453125 -31.644531 22.453125 -31.5 C 22.410156 -31.15625 22.390625 -30.492188 22.390625 -29.515625 C 22.390625 -28.535156 22.410156 -27.488281 22.453125 -26.375 C 22.492188 -25.257812 22.523438 -24.296875 22.546875 -23.484375 C 22.566406 -22.679688 22.578125 -22.28125 22.578125 -22.28125 C 22.578125 -21.894531 22.398438 -21.703125 22.046875 -21.703125 C 21.515625 -21.742188 20.785156 -21.742188 19.859375 -21.703125 C 18.941406 -21.671875 18.050781 -21.625 17.1875 -21.5625 C 16.320312 -21.507812 15.71875 -21.484375 15.375 -21.484375 C 14.445312 -21.441406 13.753906 -21.195312 13.296875 -20.75 C 12.835938 -20.3125 12.53125 -19.832031 12.375 -19.3125 C 12.226562 -18.800781 12.15625 -18.390625 12.15625 -18.078125 C 12.15625 -17.660156 12.21875 -17.226562 12.34375 -16.78125 C 12.476562 -16.34375 12.679688 -15.988281 12.953125 -15.71875 C 13.410156 -15.289062 13.945312 -15 14.5625 -14.84375 C 15.175781 -14.695312 15.867188 -14.585938 16.640625 -14.515625 C 17.410156 -14.429688 18.195312 -14.410156 19 -14.453125 C 19.800781 -14.492188 20.476562 -14.53125 21.03125 -14.5625 C 21.59375 -14.601562 21.914062 -14.625 22 -14.625 C 22.257812 -14.625 22.429688 -14.507812 22.515625 -14.28125 Z M 22.515625 -14.28125 "/></g></g></g><g fill="#ffffff" fill-opacity="1"><g transform="translate(36.146955, 204.545835)"><g><path d="M 22.6875 -27 C 22.6875 -26.5 22.6875 -25.722656 22.6875 -24.671875 C 22.6875 -23.617188 22.6875 -22.425781 22.6875 -21.09375 C 22.6875 -19.769531 22.6875 -18.4375 22.6875 -17.09375 C 22.6875 -15.75 22.6875 -14.550781 22.6875 -13.5 C 22.6875 -12.445312 22.6875 -11.671875 22.6875 -11.171875 C 22.6875 -9.941406 22.5625 -8.882812 22.3125 -8 C 22.0625 -7.113281 21.742188 -6.234375 21.359375 -5.359375 C 21.054688 -4.585938 20.664062 -3.90625 20.1875 -3.3125 C 19.707031 -2.71875 19.195312 -2.226562 18.65625 -1.84375 C 18 -1.34375 17.328125 -0.910156 16.640625 -0.546875 C 15.953125 -0.179688 15.050781 0 13.9375 0 C 13.78125 0 13.441406 0 12.921875 0 C 12.410156 0 11.847656 0 11.234375 0 C 10.617188 0 10.078125 0 9.609375 0 C 9.148438 0 8.898438 0 8.859375 0 C 7.828125 -0.0703125 6.859375 -0.394531 5.953125 -0.96875 C 5.054688 -1.550781 4.320312 -2.207031 3.75 -2.9375 C 3.4375 -3.320312 3.109375 -3.878906 2.765625 -4.609375 C 2.421875 -5.335938 2.128906 -6.09375 1.890625 -6.875 C 1.660156 -7.664062 1.546875 -8.367188 1.546875 -8.984375 C 1.546875 -9.328125 1.546875 -10.082031 1.546875 -11.25 C 1.546875 -12.425781 1.546875 -13.789062 1.546875 -15.34375 C 1.546875 -16.894531 1.546875 -18.476562 1.546875 -20.09375 C 1.546875 -21.707031 1.546875 -23.15625 1.546875 -24.4375 C 1.546875 -25.726562 1.546875 -26.640625 1.546875 -27.171875 C 1.546875 -28.554688 1.71875 -29.765625 2.0625 -30.796875 C 2.414062 -31.835938 2.820312 -32.664062 3.28125 -33.28125 C 4.082031 -34.3125 4.847656 -35.019531 5.578125 -35.40625 C 6.304688 -35.789062 7.191406 -36.0625 8.234375 -36.21875 C 8.234375 -36.21875 8.5 -36.21875 9.03125 -36.21875 C 9.570312 -36.21875 10.234375 -36.21875 11.015625 -36.21875 C 11.804688 -36.21875 12.585938 -36.21875 13.359375 -36.21875 C 14.128906 -36.21875 14.765625 -36.21875 15.265625 -36.21875 C 16.253906 -36.21875 17.160156 -36.046875 17.984375 -35.703125 C 18.816406 -35.359375 19.578125 -34.757812 20.265625 -33.90625 C 20.992188 -33.0625 21.578125 -32.003906 22.015625 -30.734375 C 22.460938 -29.472656 22.6875 -28.226562 22.6875 -27 Z M 10.015625 -14.734375 C 10.015625 -13.242188 10.21875 -12.257812 10.625 -11.78125 C 11.03125 -11.300781 11.539062 -11.0625 12.15625 -11.0625 C 12.914062 -11.0625 13.390625 -11.40625 13.578125 -12.09375 C 13.773438 -12.78125 13.875 -13.335938 13.875 -13.765625 C 13.875 -15.222656 13.898438 -16.753906 13.953125 -18.359375 C 14.015625 -19.972656 14.023438 -21.316406 13.984375 -22.390625 C 13.953125 -23.273438 13.828125 -24.023438 13.609375 -24.640625 C 13.398438 -25.253906 12.914062 -25.5625 12.15625 -25.5625 C 11.5 -25.5625 11.015625 -25.378906 10.703125 -25.015625 C 10.398438 -24.648438 10.207031 -24.226562 10.125 -23.75 C 10.050781 -23.269531 10.015625 -22.878906 10.015625 -22.578125 C 10.015625 -22.191406 10.015625 -21.566406 10.015625 -20.703125 C 10.015625 -19.835938 10.015625 -18.863281 10.015625 -17.78125 C 10.015625 -16.707031 10.015625 -15.691406 10.015625 -14.734375 Z M 10.015625 -14.734375 "/></g></g></g><g fill="#ffffff" fill-opacity="1"><g transform="translate(60.437118, 204.545835)"><g><path d="M 22.578125 -10.59375 C 22.578125 -9.363281 22.257812 -7.976562 21.625 -6.4375 C 20.988281 -4.90625 19.976562 -3.625 18.59375 -2.59375 C 17.289062 -1.59375 15.976562 -0.9375 14.65625 -0.625 C 13.332031 -0.320312 12.457031 -0.171875 12.03125 -0.171875 C 11.6875 -0.128906 11.175781 -0.0976562 10.5 -0.078125 C 9.832031 -0.0664062 9.148438 -0.0625 8.453125 -0.0625 C 7.765625 -0.0625 7.269531 -0.0625 6.96875 -0.0625 C 6.925781 -0.0625 6.664062 -0.0507812 6.1875 -0.03125 C 5.707031 -0.0078125 5.160156 0 4.546875 0 C 3.929688 0 3.394531 0 2.9375 0 C 2.476562 0 2.25 0 2.25 0 C 1.90625 0 1.75 -0.191406 1.78125 -0.578125 C 1.820312 -0.878906 1.851562 -1.585938 1.875 -2.703125 C 1.894531 -3.816406 1.910156 -5.09375 1.921875 -6.53125 C 1.941406 -7.96875 1.941406 -9.347656 1.921875 -10.671875 C 1.910156 -12.003906 1.90625 -13.050781 1.90625 -13.8125 C 1.820312 -15.507812 1.75 -17.203125 1.6875 -18.890625 C 1.632812 -20.578125 1.585938 -22.265625 1.546875 -23.953125 L 1.546875 -33.859375 C 1.546875 -34.160156 1.554688 -34.472656 1.578125 -34.796875 C 1.597656 -35.128906 1.609375 -35.445312 1.609375 -35.75 C 1.648438 -36.0625 1.804688 -36.21875 2.078125 -36.21875 L 9.4375 -36.21875 C 9.4375 -36.21875 9.320312 -36.21875 9.09375 -36.21875 C 8.863281 -36.21875 8.679688 -36.21875 8.546875 -36.21875 C 8.410156 -36.21875 8.476562 -36.21875 8.75 -36.21875 C 9.019531 -36.21875 9.65625 -36.21875 10.65625 -36.21875 C 12 -36.21875 13.101562 -36.164062 13.96875 -36.0625 C 14.832031 -35.96875 15.65625 -35.71875 16.4375 -35.3125 C 17.226562 -34.914062 18.160156 -34.257812 19.234375 -33.34375 C 20.378906 -32.34375 21.171875 -31.207031 21.609375 -29.9375 C 22.054688 -28.675781 22.328125 -27.445312 22.421875 -26.25 C 22.523438 -25.0625 22.578125 -24.066406 22.578125 -23.265625 C 22.578125 -22.992188 22.578125 -22.4375 22.578125 -21.59375 C 22.578125 -20.75 22.578125 -19.757812 22.578125 -18.625 C 22.578125 -17.488281 22.578125 -16.351562 22.578125 -15.21875 C 22.578125 -14.09375 22.578125 -13.109375 22.578125 -12.265625 C 22.578125 -11.421875 22.578125 -10.863281 22.578125 -10.59375 Z M 13.421875 -14.6875 C 13.492188 -15.101562 13.546875 -15.710938 13.578125 -16.515625 C 13.617188 -17.328125 13.628906 -18.132812 13.609375 -18.9375 C 13.597656 -19.75 13.550781 -20.382812 13.46875 -20.84375 C 13.320312 -22.1875 13.054688 -23.054688 12.671875 -23.453125 C 12.285156 -23.859375 11.9375 -24.0625 11.625 -24.0625 C 11.28125 -24.0625 11.019531 -23.925781 10.84375 -23.65625 C 10.675781 -23.394531 10.59375 -22.800781 10.59375 -21.875 L 10.59375 -14.734375 C 10.59375 -14.046875 10.640625 -13.441406 10.734375 -12.921875 C 10.828125 -12.410156 11.125 -12.15625 11.625 -12.15625 C 12.164062 -12.15625 12.5625 -12.335938 12.8125 -12.703125 C 13.0625 -13.066406 13.265625 -13.726562 13.421875 -14.6875 Z M 13.421875 -14.6875 "/></g></g></g><g fill="#ffffff" fill-opacity="1"><g transform="translate(84.612162, 204.545835)"><g><path d="M 22.34375 -9.5625 C 22.34375 -9.0625 22.34375 -8.515625 22.34375 -7.921875 C 22.34375 -7.328125 22.34375 -6.816406 22.34375 -6.390625 C 22.34375 -6.085938 22.347656 -5.628906 22.359375 -5.015625 C 22.378906 -4.398438 22.410156 -3.734375 22.453125 -3.015625 C 22.492188 -2.304688 22.523438 -1.703125 22.546875 -1.203125 C 22.566406 -0.703125 22.578125 -0.453125 22.578125 -0.453125 C 22.578125 -0.148438 22.421875 0 22.109375 0 L 2.1875 0 C 1.644531 0 1.394531 -0.269531 1.4375 -0.8125 C 1.550781 -3.6875 1.617188 -6.570312 1.640625 -9.46875 C 1.660156 -12.363281 1.691406 -15.269531 1.734375 -18.1875 C 1.765625 -21.03125 1.863281 -23.890625 2.03125 -26.765625 C 2.207031 -29.648438 2.085938 -32.515625 1.671875 -35.359375 C 1.628906 -35.585938 1.6875 -35.785156 1.84375 -35.953125 C 2 -36.128906 2.191406 -36.21875 2.421875 -36.21875 L 21.875 -36.21875 C 22.101562 -36.21875 22.257812 -36.101562 22.34375 -35.875 C 22.34375 -35.832031 22.332031 -35.65625 22.3125 -35.34375 C 22.289062 -35.039062 22.257812 -34.738281 22.21875 -34.4375 C 22.21875 -34.238281 22.195312 -33.796875 22.15625 -33.109375 C 22.125 -32.421875 22.097656 -31.703125 22.078125 -30.953125 C 22.054688 -30.203125 22.046875 -29.632812 22.046875 -29.25 C 22.046875 -28.863281 22.066406 -28.390625 22.109375 -27.828125 C 22.148438 -27.273438 22.195312 -26.78125 22.25 -26.34375 C 22.3125 -25.90625 22.34375 -25.6875 22.34375 -25.6875 C 22.34375 -25.375 22.171875 -25.21875 21.828125 -25.21875 C 21.828125 -25.21875 21.546875 -25.226562 20.984375 -25.25 C 20.429688 -25.269531 19.722656 -25.28125 18.859375 -25.28125 C 17.992188 -25.28125 17.097656 -25.269531 16.171875 -25.25 C 15.253906 -25.226562 14.429688 -25.160156 13.703125 -25.046875 C 13.128906 -24.972656 12.535156 -24.800781 11.921875 -24.53125 C 11.304688 -24.257812 10.976562 -23.78125 10.9375 -23.09375 C 10.894531 -22.664062 11.019531 -22.304688 11.3125 -22.015625 C 11.601562 -21.734375 11.941406 -21.515625 12.328125 -21.359375 C 12.515625 -21.285156 13.066406 -21.238281 13.984375 -21.21875 C 14.910156 -21.195312 15.945312 -21.1875 17.09375 -21.1875 C 18.25 -21.1875 19.273438 -21.195312 20.171875 -21.21875 C 21.078125 -21.238281 21.628906 -21.25 21.828125 -21.25 C 22.171875 -21.25 22.34375 -21.09375 22.34375 -20.78125 L 22.34375 -16 C 22.34375 -15.582031 22.332031 -15.21875 22.3125 -14.90625 C 22.289062 -14.601562 22.28125 -14.28125 22.28125 -13.9375 C 22.28125 -13.625 22.128906 -13.46875 21.828125 -13.46875 C 20.484375 -13.46875 19.289062 -13.515625 18.25 -13.609375 C 17.21875 -13.710938 16.375 -13.742188 15.71875 -13.703125 C 15.289062 -13.660156 14.800781 -13.640625 14.25 -13.640625 C 13.695312 -13.640625 13.171875 -13.5625 12.671875 -13.40625 C 12.171875 -13.257812 11.804688 -12.957031 11.578125 -12.5 C 11.191406 -11.769531 11.25 -11.164062 11.75 -10.6875 C 12.25 -10.207031 12.804688 -9.890625 13.421875 -9.734375 C 13.921875 -9.617188 14.640625 -9.578125 15.578125 -9.609375 C 16.515625 -9.648438 17.539062 -9.71875 18.65625 -9.8125 C 19.769531 -9.914062 20.828125 -9.984375 21.828125 -10.015625 C 22.171875 -10.015625 22.34375 -9.863281 22.34375 -9.5625 Z M 22.34375 -9.5625 "/></g></g></g><g fill="#ffffff" fill-opacity="1"><g transform="translate(108.787205, 204.545835)"><g/></g></g><g fill="#ffffff" fill-opacity="1"><g transform="translate(116.845553, 204.545835)"><g><path d="M 22.28125 -9.15625 C 22.28125 -8.769531 22.296875 -8.113281 22.328125 -7.1875 C 22.367188 -6.269531 22.421875 -5.289062 22.484375 -4.25 C 22.546875 -3.21875 22.59375 -2.328125 22.625 -1.578125 C 22.664062 -0.828125 22.6875 -0.453125 22.6875 -0.453125 C 22.6875 -0.148438 22.515625 0 22.171875 0 C 22.171875 0 21.832031 0 21.15625 0 C 20.488281 0 19.65625 0 18.65625 0 C 17.65625 0 16.617188 0 15.546875 0 C 14.472656 0 13.515625 0 12.671875 0 C 11.828125 0 11.269531 0 11 0 C 10.5 0 9.679688 -0.101562 8.546875 -0.3125 C 7.421875 -0.53125 6.242188 -1.210938 5.015625 -2.359375 C 4.128906 -3.160156 3.4375 -4.128906 2.9375 -5.265625 C 2.4375 -6.398438 2.078125 -7.515625 1.859375 -8.609375 C 1.648438 -9.703125 1.546875 -10.632812 1.546875 -11.40625 C 1.546875 -11.820312 1.546875 -12.535156 1.546875 -13.546875 C 1.546875 -14.566406 1.546875 -15.679688 1.546875 -16.890625 C 1.546875 -18.109375 1.535156 -19.28125 1.515625 -20.40625 C 1.503906 -21.539062 1.5 -22.472656 1.5 -23.203125 C 1.5 -23.929688 1.5 -24.296875 1.5 -24.296875 C 1.5 -26.296875 1.753906 -28.050781 2.265625 -29.5625 C 2.785156 -31.082031 3.523438 -32.285156 4.484375 -33.171875 C 5.410156 -34.085938 6.523438 -34.820312 7.828125 -35.375 C 9.128906 -35.9375 10.757812 -36.21875 12.71875 -36.21875 C 12.71875 -36.21875 13.035156 -36.21875 13.671875 -36.21875 C 14.304688 -36.21875 15.09375 -36.21875 16.03125 -36.21875 C 16.976562 -36.21875 17.921875 -36.21875 18.859375 -36.21875 C 19.796875 -36.21875 20.582031 -36.21875 21.21875 -36.21875 C 21.851562 -36.21875 22.171875 -36.21875 22.171875 -36.21875 C 22.515625 -36.21875 22.6875 -36.0625 22.6875 -35.75 C 22.6875 -35.75 22.675781 -35.257812 22.65625 -34.28125 C 22.632812 -33.300781 22.613281 -32.09375 22.59375 -30.65625 C 22.582031 -29.21875 22.578125 -27.75 22.578125 -26.25 C 22.578125 -24.757812 22.554688 -23.472656 22.515625 -22.390625 C 22.515625 -22.046875 22.34375 -21.894531 22 -21.9375 C 20.957031 -21.976562 19.765625 -22.046875 18.421875 -22.140625 C 17.078125 -22.234375 16.003906 -22.242188 15.203125 -22.171875 C 14.773438 -22.128906 14.222656 -22.097656 13.546875 -22.078125 C 12.878906 -22.054688 12.25 -21.882812 11.65625 -21.5625 C 11.0625 -21.238281 10.671875 -20.578125 10.484375 -19.578125 C 10.367188 -18.847656 10.3125 -18.019531 10.3125 -17.09375 C 10.3125 -16.175781 10.328125 -15.390625 10.359375 -14.734375 C 10.398438 -13.972656 10.421875 -13.3125 10.421875 -12.75 C 10.421875 -12.195312 10.554688 -11.773438 10.828125 -11.484375 C 11.097656 -11.203125 11.65625 -11.0625 12.5 -11.0625 C 13.914062 -11.0625 14.566406 -11.976562 14.453125 -13.8125 C 14.410156 -14.394531 14.378906 -15.144531 14.359375 -16.0625 C 14.347656 -16.988281 14.359375 -17.757812 14.390625 -18.375 C 14.390625 -18.488281 14.4375 -18.648438 14.53125 -18.859375 C 14.632812 -19.066406 14.9375 -19.171875 15.4375 -19.171875 C 15.46875 -19.171875 15.8125 -19.171875 16.46875 -19.171875 C 17.125 -19.171875 17.863281 -19.160156 18.6875 -19.140625 C 19.507812 -19.117188 20.242188 -19.109375 20.890625 -19.109375 C 21.546875 -19.109375 21.894531 -19.128906 21.9375 -19.171875 C 22.28125 -19.171875 22.453125 -19 22.453125 -18.65625 C 22.453125 -18.269531 22.453125 -17.875 22.453125 -17.46875 C 22.453125 -17.070312 22.453125 -16.679688 22.453125 -16.296875 C 22.453125 -15.296875 22.441406 -14.445312 22.421875 -13.75 C 22.398438 -13.0625 22.378906 -12.375 22.359375 -11.6875 C 22.347656 -11 22.320312 -10.15625 22.28125 -9.15625 Z M 22.28125 -9.15625 "/></g></g></g><g fill="#ffffff" fill-opacity="1"><g transform="translate(141.193276, 204.545835)"><g><path d="M 26.59375 -3.171875 C 26.71875 -2.628906 26.851562 -2.097656 27 -1.578125 C 27.15625 -1.066406 27.3125 -0.539062 27.46875 0 L 15.828125 0 C 15.796875 -0.269531 15.78125 -0.53125 15.78125 -0.78125 C 15.78125 -1.03125 15.78125 -1.285156 15.78125 -1.546875 C 15.664062 -2.628906 15.554688 -3.5625 15.453125 -4.34375 C 15.359375 -5.132812 15.21875 -5.988281 15.03125 -6.90625 C 14.832031 -7.632812 14.710938 -8.179688 14.671875 -8.546875 C 14.640625 -8.910156 14.144531 -9.113281 13.1875 -9.15625 C 12.5 -9.195312 12.078125 -8.9375 11.921875 -8.375 C 11.765625 -7.820312 11.628906 -6.945312 11.515625 -5.75 C 11.441406 -4.789062 11.363281 -3.832031 11.28125 -2.875 C 11.207031 -1.914062 11.171875 -0.957031 11.171875 0 L 1.15625 0 C 1.769531 -2.6875 2.273438 -5.398438 2.671875 -8.140625 C 3.078125 -10.890625 3.492188 -13.628906 3.921875 -16.359375 C 4.335938 -19.191406 4.878906 -22 5.546875 -24.78125 C 6.222656 -27.570312 6.753906 -30.40625 7.140625 -33.28125 C 7.253906 -34.28125 7.347656 -35.257812 7.421875 -36.21875 L 20.15625 -36.21875 C 20.425781 -33.488281 20.800781 -30.800781 21.28125 -28.15625 C 21.757812 -25.507812 22.265625 -22.878906 22.796875 -20.265625 C 23.410156 -17.421875 24.015625 -14.5625 24.609375 -11.6875 C 25.203125 -8.8125 25.863281 -5.972656 26.59375 -3.171875 Z M 12.84375 -24.875 C 12.644531 -23.300781 12.46875 -21.910156 12.3125 -20.703125 C 12.164062 -19.492188 12.175781 -18.53125 12.34375 -17.8125 C 12.519531 -17.101562 12.972656 -16.734375 13.703125 -16.703125 C 13.742188 -16.703125 13.765625 -16.703125 13.765625 -16.703125 C 13.835938 -16.703125 13.910156 -16.75 13.984375 -16.84375 C 14.066406 -16.9375 14.144531 -17.003906 14.21875 -17.046875 C 14.445312 -17.078125 14.582031 -17.332031 14.625 -17.8125 C 14.664062 -18.300781 14.675781 -18.859375 14.65625 -19.484375 C 14.632812 -20.117188 14.601562 -20.664062 14.5625 -21.125 C 14.53125 -21.894531 14.460938 -22.660156 14.359375 -23.421875 C 14.265625 -24.191406 14.023438 -24.8125 13.640625 -25.28125 C 13.523438 -25.394531 13.367188 -25.421875 13.171875 -25.359375 C 12.984375 -25.304688 12.875 -25.144531 12.84375 -24.875 Z M 12.84375 -24.875 "/></g></g></g><g fill="#ffffff" fill-opacity="1"><g transform="translate(169.800411, 204.545835)"><g><path d="M 20.953125 -9.5 C 21.265625 -8.5 21.550781 -7.375 21.8125 -6.125 C 22.082031 -4.882812 22.3125 -3.742188 22.5 -2.703125 C 22.695312 -1.671875 22.835938 -0.984375 22.921875 -0.640625 C 22.953125 -0.210938 22.816406 0 22.515625 0 L 14.109375 0 C 13.953125 0 13.835938 -0.113281 13.765625 -0.34375 C 13.679688 -0.613281 13.5625 -1.140625 13.40625 -1.921875 C 13.257812 -2.710938 13.085938 -3.578125 12.890625 -4.515625 C 12.703125 -5.460938 12.492188 -6.304688 12.265625 -7.046875 C 12.035156 -7.796875 11.820312 -8.285156 11.625 -8.515625 C 11.476562 -8.710938 11.25 -8.757812 10.9375 -8.65625 C 10.632812 -8.5625 10.484375 -8.363281 10.484375 -8.0625 C 10.398438 -6.875 10.347656 -5.632812 10.328125 -4.34375 C 10.316406 -3.0625 10.328125 -1.785156 10.359375 -0.515625 C 10.359375 -0.171875 10.242188 0 10.015625 0 L 1.953125 0 C 1.722656 0 1.609375 -0.171875 1.609375 -0.515625 L 1.609375 -5.359375 C 1.609375 -5.546875 1.617188 -6.050781 1.640625 -6.875 C 1.660156 -7.707031 1.671875 -8.675781 1.671875 -9.78125 C 1.671875 -10.894531 1.671875 -12.007812 1.671875 -13.125 C 1.671875 -14.238281 1.660156 -15.195312 1.640625 -16 C 1.617188 -16.8125 1.609375 -17.296875 1.609375 -17.453125 L 1.609375 -24.640625 C 1.648438 -26.484375 1.6875 -28.351562 1.71875 -30.25 C 1.757812 -32.15625 1.765625 -34.03125 1.734375 -35.875 C 1.734375 -36.101562 1.789062 -36.21875 1.90625 -36.21875 L 15.3125 -36.21875 C 15.96875 -36.21875 16.640625 -36.050781 17.328125 -35.71875 C 18.023438 -35.394531 18.660156 -34.96875 19.234375 -34.4375 C 19.921875 -33.851562 20.484375 -33.207031 20.921875 -32.5 C 21.367188 -31.789062 21.671875 -31.242188 21.828125 -30.859375 C 22.359375 -29.710938 22.644531 -28.59375 22.6875 -27.5 C 22.726562 -26.40625 22.75 -25.085938 22.75 -23.546875 C 22.75 -22.859375 22.71875 -22.0625 22.65625 -21.15625 C 22.601562 -20.257812 22.515625 -19.40625 22.390625 -18.59375 C 22.273438 -17.789062 22.125 -17.160156 21.9375 -16.703125 C 21.75 -16.234375 21.476562 -15.710938 21.125 -15.140625 C 20.78125 -14.566406 20.460938 -14.066406 20.171875 -13.640625 C 19.890625 -13.222656 19.75 -12.992188 19.75 -12.953125 C 19.707031 -12.953125 19.6875 -12.953125 19.6875 -12.953125 C 19.6875 -12.953125 19.6875 -12.929688 19.6875 -12.890625 C 19.382812 -12.660156 19.429688 -12.328125 19.828125 -11.890625 C 20.234375 -11.453125 20.609375 -10.65625 20.953125 -9.5 Z M 13.421875 -20.90625 C 13.492188 -21.707031 13.507812 -22.441406 13.46875 -23.109375 C 13.4375 -23.785156 13.378906 -24.429688 13.296875 -25.046875 C 13.179688 -26.078125 12.960938 -26.738281 12.640625 -27.03125 C 12.316406 -27.320312 11.976562 -27.46875 11.625 -27.46875 C 11.394531 -27.46875 11.179688 -27.398438 10.984375 -27.265625 C 10.796875 -27.128906 10.703125 -26.984375 10.703125 -26.828125 C 10.703125 -26.597656 10.703125 -26.3125 10.703125 -25.96875 C 10.703125 -25.625 10.703125 -25.28125 10.703125 -24.9375 C 10.703125 -24.320312 10.691406 -23.503906 10.671875 -22.484375 C 10.660156 -21.460938 10.671875 -20.628906 10.703125 -19.984375 C 10.703125 -19.710938 10.738281 -19.40625 10.8125 -19.0625 C 10.894531 -18.71875 11.164062 -18.523438 11.625 -18.484375 C 12.007812 -18.484375 12.382812 -18.664062 12.75 -19.03125 C 13.113281 -19.394531 13.335938 -20.019531 13.421875 -20.90625 Z M 13.421875 -20.90625 "/></g></g></g><g fill="#ffffff" fill-opacity="1"><g transform="translate(194.148133, 204.545835)"><g><path d="M 22.578125 -10.59375 C 22.578125 -9.363281 22.257812 -7.976562 21.625 -6.4375 C 20.988281 -4.90625 19.976562 -3.625 18.59375 -2.59375 C 17.289062 -1.59375 15.976562 -0.9375 14.65625 -0.625 C 13.332031 -0.320312 12.457031 -0.171875 12.03125 -0.171875 C 11.6875 -0.128906 11.175781 -0.0976562 10.5 -0.078125 C 9.832031 -0.0664062 9.148438 -0.0625 8.453125 -0.0625 C 7.765625 -0.0625 7.269531 -0.0625 6.96875 -0.0625 C 6.925781 -0.0625 6.664062 -0.0507812 6.1875 -0.03125 C 5.707031 -0.0078125 5.160156 0 4.546875 0 C 3.929688 0 3.394531 0 2.9375 0 C 2.476562 0 2.25 0 2.25 0 C 1.90625 0 1.75 -0.191406 1.78125 -0.578125 C 1.820312 -0.878906 1.851562 -1.585938 1.875 -2.703125 C 1.894531 -3.816406 1.910156 -5.09375 1.921875 -6.53125 C 1.941406 -7.96875 1.941406 -9.347656 1.921875 -10.671875 C 1.910156 -12.003906 1.90625 -13.050781 1.90625 -13.8125 C 1.820312 -15.507812 1.75 -17.203125 1.6875 -18.890625 C 1.632812 -20.578125 1.585938 -22.265625 1.546875 -23.953125 L 1.546875 -33.859375 C 1.546875 -34.160156 1.554688 -34.472656 1.578125 -34.796875 C 1.597656 -35.128906 1.609375 -35.445312 1.609375 -35.75 C 1.648438 -36.0625 1.804688 -36.21875 2.078125 -36.21875 L 9.4375 -36.21875 C 9.4375 -36.21875 9.320312 -36.21875 9.09375 -36.21875 C 8.863281 -36.21875 8.679688 -36.21875 8.546875 -36.21875 C 8.410156 -36.21875 8.476562 -36.21875 8.75 -36.21875 C 9.019531 -36.21875 9.65625 -36.21875 10.65625 -36.21875 C 12 -36.21875 13.101562 -36.164062 13.96875 -36.0625 C 14.832031 -35.96875 15.65625 -35.71875 16.4375 -35.3125 C 17.226562 -34.914062 18.160156 -34.257812 19.234375 -33.34375 C 20.378906 -32.34375 21.171875 -31.207031 21.609375 -29.9375 C 22.054688 -28.675781 22.328125 -27.445312 22.421875 -26.25 C 22.523438 -25.0625 22.578125 -24.066406 22.578125 -23.265625 C 22.578125 -22.992188 22.578125 -22.4375 22.578125 -21.59375 C 22.578125 -20.75 22.578125 -19.757812 22.578125 -18.625 C 22.578125 -17.488281 22.578125 -16.351562 22.578125 -15.21875 C 22.578125 -14.09375 22.578125 -13.109375 22.578125 -12.265625 C 22.578125 -11.421875 22.578125 -10.863281 22.578125 -10.59375 Z M 13.421875 -14.6875 C 13.492188 -15.101562 13.546875 -15.710938 13.578125 -16.515625 C 13.617188 -17.328125 13.628906 -18.132812 13.609375 -18.9375 C 13.597656 -19.75 13.550781 -20.382812 13.46875 -20.84375 C 13.320312 -22.1875 13.054688 -23.054688 12.671875 -23.453125 C 12.285156 -23.859375 11.9375 -24.0625 11.625 -24.0625 C 11.28125 -24.0625 11.019531 -23.925781 10.84375 -23.65625 C 10.675781 -23.394531 10.59375 -22.800781 10.59375 -21.875 L 10.59375 -14.734375 C 10.59375 -14.046875 10.640625 -13.441406 10.734375 -12.921875 C 10.828125 -12.410156 11.125 -12.15625 11.625 -12.15625 C 12.164062 -12.15625 12.5625 -12.335938 12.8125 -12.703125 C 13.0625 -13.066406 13.265625 -13.726562 13.421875 -14.6875 Z M 13.421875 -14.6875 "/></g></g></g><g fill="#ffffff" fill-opacity="1"><g transform="translate(218.323177, 204.545835)"><g><path d="M 22.34375 -9.5625 C 22.34375 -9.0625 22.34375 -8.515625 22.34375 -7.921875 C 22.34375 -7.328125 22.34375 -6.816406 22.34375 -6.390625 C 22.34375 -6.085938 22.347656 -5.628906 22.359375 -5.015625 C 22.378906 -4.398438 22.410156 -3.734375 22.453125 -3.015625 C 22.492188 -2.304688 22.523438 -1.703125 22.546875 -1.203125 C 22.566406 -0.703125 22.578125 -0.453125 22.578125 -0.453125 C 22.578125 -0.148438 22.421875 0 22.109375 0 L 2.1875 0 C 1.644531 0 1.394531 -0.269531 1.4375 -0.8125 C 1.550781 -3.6875 1.617188 -6.570312 1.640625 -9.46875 C 1.660156 -12.363281 1.691406 -15.269531 1.734375 -18.1875 C 1.765625 -21.03125 1.863281 -23.890625 2.03125 -26.765625 C 2.207031 -29.648438 2.085938 -32.515625 1.671875 -35.359375 C 1.628906 -35.585938 1.6875 -35.785156 1.84375 -35.953125 C 2 -36.128906 2.191406 -36.21875 2.421875 -36.21875 L 21.875 -36.21875 C 22.101562 -36.21875 22.257812 -36.101562 22.34375 -35.875 C 22.34375 -35.832031 22.332031 -35.65625 22.3125 -35.34375 C 22.289062 -35.039062 22.257812 -34.738281 22.21875 -34.4375 C 22.21875 -34.238281 22.195312 -33.796875 22.15625 -33.109375 C 22.125 -32.421875 22.097656 -31.703125 22.078125 -30.953125 C 22.054688 -30.203125 22.046875 -29.632812 22.046875 -29.25 C 22.046875 -28.863281 22.066406 -28.390625 22.109375 -27.828125 C 22.148438 -27.273438 22.195312 -26.78125 22.25 -26.34375 C 22.3125 -25.90625 22.34375 -25.6875 22.34375 -25.6875 C 22.34375 -25.375 22.171875 -25.21875 21.828125 -25.21875 C 21.828125 -25.21875 21.546875 -25.226562 20.984375 -25.25 C 20.429688 -25.269531 19.722656 -25.28125 18.859375 -25.28125 C 17.992188 -25.28125 17.097656 -25.269531 16.171875 -25.25 C 15.253906 -25.226562 14.429688 -25.160156 13.703125 -25.046875 C 13.128906 -24.972656 12.535156 -24.800781 11.921875 -24.53125 C 11.304688 -24.257812 10.976562 -23.78125 10.9375 -23.09375 C 10.894531 -22.664062 11.019531 -22.304688 11.3125 -22.015625 C 11.601562 -21.734375 11.941406 -21.515625 12.328125 -21.359375 C 12.515625 -21.285156 13.066406 -21.238281 13.984375 -21.21875 C 14.910156 -21.195312 15.945312 -21.1875 17.09375 -21.1875 C 18.25 -21.1875 19.273438 -21.195312 20.171875 -21.21875 C 21.078125 -21.238281 21.628906 -21.25 21.828125 -21.25 C 22.171875 -21.25 22.34375 -21.09375 22.34375 -20.78125 L 22.34375 -16 C 22.34375 -15.582031 22.332031 -15.21875 22.3125 -14.90625 C 22.289062 -14.601562 22.28125 -14.28125 22.28125 -13.9375 C 22.28125 -13.625 22.128906 -13.46875 21.828125 -13.46875 C 20.484375 -13.46875 19.289062 -13.515625 18.25 -13.609375 C 17.21875 -13.710938 16.375 -13.742188 15.71875 -13.703125 C 15.289062 -13.660156 14.800781 -13.640625 14.25 -13.640625 C 13.695312 -13.640625 13.171875 -13.5625 12.671875 -13.40625 C 12.171875 -13.257812 11.804688 -12.957031 11.578125 -12.5 C 11.191406 -11.769531 11.25 -11.164062 11.75 -10.6875 C 12.25 -10.207031 12.804688 -9.890625 13.421875 -9.734375 C 13.921875 -9.617188 14.640625 -9.578125 15.578125 -9.609375 C 16.515625 -9.648438 17.539062 -9.71875 18.65625 -9.8125 C 19.769531 -9.914062 20.828125 -9.984375 21.828125 -10.015625 C 22.171875 -10.015625 22.34375 -9.863281 22.34375 -9.5625 Z M 22.34375 -9.5625 "/></g></g></g><g fill="#ffffff" fill-opacity="1"><g transform="translate(242.498221, 204.545835)"><g><path d="M 22.6875 -16.46875 C 22.6875 -15.539062 22.6875 -14.414062 22.6875 -13.09375 C 22.6875 -11.769531 22.675781 -10.390625 22.65625 -8.953125 C 22.632812 -7.515625 22.625 -6.160156 22.625 -4.890625 C 22.625 -3.628906 22.625 -2.566406 22.625 -1.703125 C 22.625 -0.835938 22.625 -0.328125 22.625 -0.171875 C 22.625 -0.0546875 22.585938 0 22.515625 0 L 13.875 0 C 13.800781 0 13.765625 -0.0351562 13.765625 -0.109375 C 13.609375 -0.578125 13.460938 -1.039062 13.328125 -1.5 C 13.191406 -1.957031 13.046875 -2.414062 12.890625 -2.875 C 12.585938 -3.832031 12.320312 -4.953125 12.09375 -6.234375 C 11.863281 -7.523438 11.535156 -8.554688 11.109375 -9.328125 C 10.921875 -9.753906 10.644531 -9.859375 10.28125 -9.640625 C 9.914062 -9.429688 9.734375 -9.078125 9.734375 -8.578125 C 9.648438 -7.347656 9.632812 -5.945312 9.6875 -4.375 C 9.75 -2.800781 9.800781 -1.398438 9.84375 -0.171875 C 9.84375 -0.0546875 9.804688 0 9.734375 0 L 1.671875 -0.0625 C 1.585938 -0.0625 1.546875 -0.0976562 1.546875 -0.171875 C 1.546875 -3.359375 1.582031 -6.523438 1.65625 -9.671875 C 1.738281 -12.816406 1.78125 -15.984375 1.78125 -19.171875 C 1.78125 -20.242188 1.769531 -21.507812 1.75 -22.96875 C 1.738281 -24.425781 1.734375 -25.910156 1.734375 -27.421875 C 1.734375 -28.941406 1.722656 -30.363281 1.703125 -31.6875 C 1.679688 -33.019531 1.660156 -34.085938 1.640625 -34.890625 C 1.617188 -35.691406 1.609375 -36.09375 1.609375 -36.09375 C 1.609375 -36.175781 1.648438 -36.21875 1.734375 -36.21875 L 10.421875 -36.21875 C 10.460938 -36.21875 10.5 -36.175781 10.53125 -36.09375 C 10.800781 -35.21875 11.0625 -34.15625 11.3125 -32.90625 C 11.5625 -31.65625 11.8125 -30.40625 12.0625 -29.15625 C 12.3125 -27.914062 12.609375 -26.875 12.953125 -26.03125 C 13.109375 -25.53125 13.414062 -25.375 13.875 -25.5625 C 14.21875 -25.675781 14.429688 -26.019531 14.515625 -26.59375 C 14.585938 -27.40625 14.625 -28.382812 14.625 -29.53125 C 14.625 -30.6875 14.625 -31.859375 14.625 -33.046875 C 14.625 -34.234375 14.625 -35.234375 14.625 -36.046875 C 14.625 -36.160156 14.660156 -36.21875 14.734375 -36.21875 L 22.6875 -36.21875 C 22.757812 -36.21875 22.796875 -36.160156 22.796875 -36.046875 C 22.796875 -36.003906 22.796875 -35.960938 22.796875 -35.921875 C 22.796875 -32.660156 22.773438 -29.40625 22.734375 -26.15625 C 22.703125 -22.914062 22.6875 -19.6875 22.6875 -16.46875 Z M 22.6875 -16.46875 "/></g></g></g><g fill="#ffffff" fill-opacity="1"><g transform="translate(267.018622, 204.545835)"><g/></g></g><g fill="#ffffff" fill-opacity="1"><g transform="translate(275.07697, 204.545835)"><g><path d="M 22.515625 -14.28125 C 22.515625 -13.664062 22.492188 -12.722656 22.453125 -11.453125 C 22.410156 -10.191406 22.390625 -8.878906 22.390625 -7.515625 C 22.390625 -6.148438 22.453125 -4.988281 22.578125 -4.03125 L 22.578125 -0.578125 C 22.578125 -0.191406 22.382812 0 22 0 C 22 0 22.128906 0 22.390625 0 C 22.660156 0 22.898438 0 23.109375 0 C 23.328125 0 23.40625 0 23.34375 0 C 23.289062 0 22.945312 0 22.3125 0 C 21.675781 0 20.628906 0 19.171875 0 C 16.753906 0 14.828125 -0.140625 13.390625 -0.421875 C 11.953125 -0.710938 10.828125 -1.066406 10.015625 -1.484375 C 9.210938 -1.910156 8.539062 -2.28125 8 -2.59375 C 7.195312 -3.09375 6.410156 -3.664062 5.640625 -4.3125 C 4.867188 -4.96875 4.253906 -5.660156 3.796875 -6.390625 C 2.796875 -8.003906 2.148438 -9.453125 1.859375 -10.734375 C 1.578125 -12.023438 1.4375 -13.285156 1.4375 -14.515625 L 1.4375 -21.484375 C 1.4375 -21.484375 1.4375 -21.375 1.4375 -21.15625 C 1.4375 -20.945312 1.4375 -20.742188 1.4375 -20.546875 C 1.4375 -20.359375 1.4375 -20.3125 1.4375 -20.40625 C 1.4375 -20.507812 1.4375 -20.882812 1.4375 -21.53125 C 1.4375 -22.800781 1.53125 -24.03125 1.71875 -25.21875 C 1.914062 -26.40625 2.1875 -27.5 2.53125 -28.5 C 2.84375 -29.457031 3.320312 -30.320312 3.96875 -31.09375 C 4.625 -31.863281 5.316406 -32.613281 6.046875 -33.34375 C 7.234375 -34.445312 8.820312 -35.203125 10.8125 -35.609375 C 12.8125 -36.015625 14.890625 -36.21875 17.046875 -36.21875 C 18.691406 -36.21875 19.914062 -36.21875 20.71875 -36.21875 C 21.53125 -36.21875 22.039062 -36.21875 22.25 -36.21875 C 22.46875 -36.21875 22.515625 -36.21875 22.390625 -36.21875 C 22.273438 -36.21875 22.125 -36.21875 21.9375 -36.21875 C 21.75 -36.21875 21.65625 -36.21875 21.65625 -36.21875 C 21.769531 -36.21875 21.953125 -36.109375 22.203125 -35.890625 C 22.453125 -35.679688 22.578125 -35.503906 22.578125 -35.359375 L 22.578125 -32.421875 C 22.535156 -32.265625 22.503906 -32.109375 22.484375 -31.953125 C 22.460938 -31.796875 22.453125 -31.644531 22.453125 -31.5 C 22.410156 -31.15625 22.390625 -30.492188 22.390625 -29.515625 C 22.390625 -28.535156 22.410156 -27.488281 22.453125 -26.375 C 22.492188 -25.257812 22.523438 -24.296875 22.546875 -23.484375 C 22.566406 -22.679688 22.578125 -22.28125 22.578125 -22.28125 C 22.578125 -21.894531 22.398438 -21.703125 22.046875 -21.703125 C 21.515625 -21.742188 20.785156 -21.742188 19.859375 -21.703125 C 18.941406 -21.671875 18.050781 -21.625 17.1875 -21.5625 C 16.320312 -21.507812 15.71875 -21.484375 15.375 -21.484375 C 14.445312 -21.441406 13.753906 -21.195312 13.296875 -20.75 C 12.835938 -20.3125 12.53125 -19.832031 12.375 -19.3125 C 12.226562 -18.800781 12.15625 -18.390625 12.15625 -18.078125 C 12.15625 -17.660156 12.21875 -17.226562 12.34375 -16.78125 C 12.476562 -16.34375 12.679688 -15.988281 12.953125 -15.71875 C 13.410156 -15.289062 13.945312 -15 14.5625 -14.84375 C 15.175781 -14.695312 15.867188 -14.585938 16.640625 -14.515625 C 17.410156 -14.429688 18.195312 -14.410156 19 -14.453125 C 19.800781 -14.492188 20.476562 -14.53125 21.03125 -14.5625 C 21.59375 -14.601562 21.914062 -14.625 22 -14.625 C 22.257812 -14.625 22.429688 -14.507812 22.515625 -14.28125 Z M 22.515625 -14.28125 "/></g></g></g><g fill="#ffffff" fill-opacity="1"><g transform="translate(299.654931, 204.545835)"><g><path d="M 1.78125 -36.21875 L 12.375 -36.21875 C 12.800781 -36.21875 12.992188 -35.988281 12.953125 -35.53125 C 12.878906 -34.414062 12.832031 -32.878906 12.8125 -30.921875 C 12.789062 -28.960938 12.78125 -26.835938 12.78125 -24.546875 C 12.78125 -22.265625 12.789062 -20.039062 12.8125 -17.875 C 12.832031 -15.707031 12.859375 -13.796875 12.890625 -12.140625 C 12.929688 -10.492188 12.953125 -9.34375 12.953125 -8.6875 C 12.992188 -7.34375 13.050781 -6.007812 13.125 -4.6875 C 13.207031 -3.363281 13.304688 -2.03125 13.421875 -0.6875 C 13.453125 -0.226562 13.238281 0 12.78125 0 L 1.84375 0 C 1.6875 0 1.628906 -0.09375 1.671875 -0.28125 C 1.742188 -0.78125 1.800781 -1.703125 1.84375 -3.046875 C 1.882812 -4.390625 1.90625 -5.894531 1.90625 -7.5625 C 1.90625 -9.238281 1.894531 -10.816406 1.875 -12.296875 C 1.851562 -13.773438 1.820312 -14.894531 1.78125 -15.65625 C 1.78125 -16.582031 1.769531 -17.789062 1.75 -19.28125 C 1.738281 -20.78125 1.722656 -22.394531 1.703125 -24.125 C 1.679688 -25.851562 1.660156 -27.53125 1.640625 -29.15625 C 1.617188 -30.789062 1.597656 -32.222656 1.578125 -33.453125 C 1.554688 -34.679688 1.546875 -35.523438 1.546875 -35.984375 C 1.585938 -36.023438 1.664062 -36.101562 1.78125 -36.21875 Z M 1.78125 -36.21875 "/></g></g></g><g fill="#ffffff" fill-opacity="1"><g transform="translate(314.562875, 204.545835)"><g><path d="M 22.34375 -36.09375 C 22.34375 -34.5625 22.378906 -33.019531 22.453125 -31.46875 C 22.535156 -29.914062 22.535156 -28.367188 22.453125 -26.828125 C 22.453125 -26.097656 22.429688 -25.359375 22.390625 -24.609375 C 22.359375 -23.859375 22.34375 -23.101562 22.34375 -22.34375 C 22.34375 -22 22.207031 -21.804688 21.9375 -21.765625 C 21.019531 -21.648438 20.164062 -21.628906 19.375 -21.703125 C 18.582031 -21.785156 18.015625 -21.691406 17.671875 -21.421875 C 17.597656 -21.335938 17.472656 -21.207031 17.296875 -21.03125 C 17.128906 -20.863281 17.023438 -20.609375 16.984375 -20.265625 C 16.910156 -19.960938 16.863281 -19.289062 16.84375 -18.25 C 16.820312 -17.21875 16.800781 -15.976562 16.78125 -14.53125 C 16.757812 -13.09375 16.75 -11.597656 16.75 -10.046875 C 16.75 -8.492188 16.75 -7.023438 16.75 -5.640625 C 16.75 -4.253906 16.757812 -3.101562 16.78125 -2.1875 C 16.800781 -1.269531 16.8125 -0.753906 16.8125 -0.640625 C 16.8125 -0.210938 16.640625 0 16.296875 0 L 7.421875 0 C 7.117188 0 6.945312 -0.191406 6.90625 -0.578125 C 6.90625 -1.078125 6.914062 -1.921875 6.9375 -3.109375 C 6.957031 -4.296875 6.984375 -5.640625 7.015625 -7.140625 C 7.054688 -8.640625 7.097656 -10.125 7.140625 -11.59375 C 7.179688 -13.070312 7.207031 -14.347656 7.21875 -15.421875 C 7.238281 -16.503906 7.234375 -17.195312 7.203125 -17.5 C 7.117188 -18.082031 7.085938 -18.660156 7.109375 -19.234375 C 7.128906 -19.804688 6.925781 -20.304688 6.5 -20.734375 C 6.15625 -21.035156 5.78125 -21.253906 5.375 -21.390625 C 4.976562 -21.523438 4.566406 -21.613281 4.140625 -21.65625 C 3.640625 -21.6875 3.1875 -21.703125 2.78125 -21.703125 C 2.382812 -21.703125 2.1875 -21.703125 2.1875 -21.703125 C 1.84375 -21.703125 1.671875 -21.894531 1.671875 -22.28125 C 1.671875 -22.28125 1.671875 -22.539062 1.671875 -23.0625 C 1.671875 -23.582031 1.660156 -24.15625 1.640625 -24.78125 C 1.617188 -25.414062 1.585938 -25.90625 1.546875 -26.25 C 1.515625 -26.789062 1.476562 -27.566406 1.4375 -28.578125 C 1.394531 -29.597656 1.375 -30.65625 1.375 -31.75 C 1.375 -32.84375 1.375 -33.78125 1.375 -34.5625 C 1.375 -35.351562 1.375 -35.789062 1.375 -35.875 C 1.375 -36.101562 1.550781 -36.21875 1.90625 -36.21875 L 22.21875 -36.21875 C 22.21875 -36.21875 22.238281 -36.207031 22.28125 -36.1875 C 22.320312 -36.164062 22.34375 -36.132812 22.34375 -36.09375 Z M 22.34375 -36.09375 "/></g></g></g><g fill="#ffffff" fill-opacity="1"><g transform="translate(338.56524, 204.545835)"><g><path d="M 13.984375 -36.21875 L 23.484375 -36.21875 C 23.640625 -36.21875 23.679688 -36.101562 23.609375 -35.875 C 23.566406 -35.71875 23.445312 -35.195312 23.25 -34.3125 C 23.0625 -33.4375 22.832031 -32.34375 22.5625 -31.03125 C 22.300781 -29.726562 21.992188 -28.394531 21.640625 -27.03125 C 21.296875 -25.664062 20.972656 -24.445312 20.671875 -23.375 C 19.941406 -20.882812 19.296875 -18.6875 18.734375 -16.78125 C 18.179688 -14.882812 17.882812 -13.765625 17.84375 -13.421875 C 17.769531 -12.804688 17.722656 -12.273438 17.703125 -11.828125 C 17.679688 -11.390625 17.671875 -10.863281 17.671875 -10.25 C 17.671875 -9.519531 17.648438 -8.78125 17.609375 -8.03125 C 17.578125 -7.28125 17.539062 -6.539062 17.5 -5.8125 C 17.5 -4.894531 17.488281 -3.960938 17.46875 -3.015625 C 17.457031 -2.078125 17.46875 -1.148438 17.5 -0.234375 C 17.5 -0.078125 17.460938 0 17.390625 0 L 6.5625 0 C 6.445312 0 6.390625 -0.078125 6.390625 -0.234375 C 6.390625 -0.304688 6.398438 -0.707031 6.421875 -1.4375 C 6.441406 -2.164062 6.457031 -3.046875 6.46875 -4.078125 C 6.488281 -5.117188 6.507812 -6.175781 6.53125 -7.25 C 6.550781 -8.320312 6.5625 -9.269531 6.5625 -10.09375 C 6.5625 -10.925781 6.5625 -11.476562 6.5625 -11.75 C 6.5625 -12.4375 6.53125 -12.882812 6.46875 -13.09375 C 6.414062 -13.3125 6.3125 -13.726562 6.15625 -14.34375 C 6.082031 -14.601562 5.910156 -15.359375 5.640625 -16.609375 C 5.367188 -17.859375 4.96875 -19.519531 4.4375 -21.59375 C 4.09375 -23.007812 3.738281 -24.484375 3.375 -26.015625 C 3.007812 -27.554688 2.671875 -29.023438 2.359375 -30.421875 C 2.054688 -31.828125 1.796875 -33.03125 1.578125 -34.03125 C 1.367188 -35.03125 1.226562 -35.660156 1.15625 -35.921875 C 1.113281 -36.117188 1.148438 -36.21875 1.265625 -36.21875 L 10.703125 -36.21875 C 10.785156 -36.21875 10.828125 -36.140625 10.828125 -35.984375 C 10.898438 -34.484375 10.992188 -32.984375 11.109375 -31.484375 C 11.222656 -29.992188 11.359375 -28.5 11.515625 -27 C 11.585938 -26.5 11.800781 -26.25 12.15625 -26.25 C 12.457031 -26.25 12.664062 -26.5 12.78125 -27 C 12.894531 -27.539062 13.007812 -28.269531 13.125 -29.1875 C 13.238281 -30.113281 13.34375 -31.066406 13.4375 -32.046875 C 13.539062 -33.023438 13.628906 -33.882812 13.703125 -34.625 C 13.773438 -35.375 13.832031 -35.847656 13.875 -36.046875 C 13.914062 -36.160156 13.953125 -36.21875 13.984375 -36.21875 Z M 13.984375 -36.21875 "/></g></g></g></svg>